<svg width="124" height="26" viewBox="0 0 124 26" fill="none" xmlns="http://www.w3.org/2000/svg">
<path fill-rule="evenodd" clip-rule="evenodd" d="M53.3315 7.39462C54.9231 7.39462 56.4812 7.68099 57.4198 7.93993L57.5001 7.96236L57.5757 7.57967H64.0648V9.70851L62.6285 9.8624L64.6804 17.0697H64.8599L67.1427 7.91311H71.0156L73.2214 17.0697H73.3753L75.2989 9.8624L73.837 9.70851L74.1704 7.57967H79.5566L79.5563 9.0153C79.4398 9.24543 79.3318 9.48049 79.2324 9.72008L78.6333 9.83675C78.288 9.88608 78.1324 10.0065 78.0298 10.3122L78.0177 10.3497L74.8629 20.9426H70.8104L68.8098 12.3503H68.6559L66.6297 20.9426H62.0129L58.7812 10.3241C58.6829 10.0291 58.561 9.96972 58.2801 9.89755L58.2426 9.88805L58.0164 9.83952L58.031 9.89753V11.8421L55.2982 11.6633L55.0427 10.334C55.0175 10.1296 54.9661 10.0274 54.7877 9.97625L54.7062 9.95273C54.3609 9.859 53.7897 9.77177 53.1531 9.77177C51.876 9.77177 51.1608 10.2574 51.1608 11.0753C51.1608 11.9691 52.1828 12.268 53.45 12.5586L54.3056 12.7533L54.4239 12.7815C56.3599 13.2474 58.4142 14.0346 58.4142 16.8772C58.4142 19.9957 55.8859 21.2735 52.6422 21.2735C50.3796 21.2735 48.1655 20.6921 47.6256 20.3784L47.5852 20.3535V16.6473L50.318 16.8518L50.5738 18.3086L50.5817 18.3709C50.6101 18.5576 50.6722 18.6458 50.8801 18.6919L50.94 18.711L51.0082 18.731L51.0846 18.7515L51.1724 18.7732C51.5409 18.8601 52.1136 18.9475 52.8468 18.9475C54.1999 18.9475 54.9661 18.5643 54.9661 17.6185C54.9661 16.6129 53.9777 16.2998 52.706 16.0707L52.1244 15.9659L51.8766 15.9189C49.8847 15.5311 47.6878 14.8289 47.6878 11.8678C47.6878 8.69843 50.3946 7.39462 53.3315 7.39462ZM29.7784 7.39462C33.6006 7.39462 35.1575 8.42216 35.1882 11.9145L35.1887 12.0211L35.1888 18.2693L35.1896 18.3378L35.1918 18.3988L35.196 18.4547C35.2156 18.6464 35.2856 18.6956 35.5265 18.7332L35.5951 18.743L36.6285 18.9164V16.6473L39.3464 16.8518L39.6007 18.3086C39.6255 18.5386 39.6769 18.6409 39.9054 18.6919L39.965 18.711L40.0328 18.731L40.1088 18.7515L40.1961 18.7732C40.5625 18.8601 41.1322 18.9475 41.8613 18.9475C43.2071 18.9475 43.9691 18.5643 43.9691 17.6185C43.9691 16.6464 43.0505 16.3214 41.8468 16.0939L41.1349 15.9644L40.8888 15.9174L40.7102 15.8816L40.5363 15.8449C38.6599 15.4381 36.7304 14.6503 36.7304 11.8678C36.7304 8.69843 39.4225 7.39462 42.3434 7.39462C44.2825 7.39462 46.1743 7.8246 46.9413 8.10699L47.0172 8.13591V11.8421L44.2993 11.6633L44.0452 10.334C44.0202 10.1296 43.9691 10.0274 43.7917 9.97625C43.4614 9.87414 42.8518 9.77177 42.166 9.77177C40.8959 9.77177 40.1845 10.2574 40.1845 11.0753C40.1845 11.9845 41.2363 12.2779 42.5267 12.5736L43.1309 12.7112C45.1375 13.1711 47.3983 13.8869 47.3983 16.8772C47.3983 19.9954 44.8839 21.2735 41.6578 21.2735C39.6029 21.2735 37.5927 20.7893 36.8499 20.4661L36.8144 20.4504V20.9666H32.1405L31.8862 19.5864L31.7594 19.561C30.7945 20.5067 29.5244 21.2735 27.4923 21.2735C24.2923 21.2735 23.7839 19.0756 23.7839 17.4907C23.7839 14.9603 25.3276 13.7827 28.4391 13.561L31.4547 13.3504L31.4547 11.8953L31.4534 11.7505L31.4514 11.6548L31.4463 11.5151L31.4413 11.4244C31.3827 10.5132 31.0884 9.92533 29.7529 9.92533L29.5972 9.92644L29.497 9.92859C28.4613 9.9579 27.9156 10.2074 27.8991 11.5729L27.8987 11.6378L24.3171 11.3307C24.3171 7.915 27.3795 7.40464 29.7081 7.39477L29.7784 7.39462ZM121.809 1.65802L121.81 18.2202L121.812 18.2794C121.825 18.5017 121.883 18.5553 122.142 18.5958L123.414 18.7831V20.7844H118.751L118.5 19.3658L118.325 19.3405C117.272 20.3791 116.043 21.0884 114.213 21.0884C111.255 21.0884 109.35 19.1885 109.35 14.3499C109.35 9.25792 111.882 7.33262 114.665 7.33262C116.084 7.33262 117.193 7.81544 118.131 8.49828L118.199 8.5486V4.69798C118.199 4.45799 118.109 4.2862 117.908 4.20416L117.874 4.19132L116.495 3.70999L116.77 1.65802H121.809ZM107.227 7.20957C107.8 7.20957 108.928 7.30596 109.422 7.42886L109.471 7.44167V12.1352L106.376 12.0321L106.118 10.6653C106.067 10.4332 105.989 10.3816 105.783 10.3816C105.152 10.3816 104.407 10.8842 103.999 11.2228L103.926 11.2842L103.926 18.1627C103.928 18.5244 103.964 18.6041 104.304 18.6314L106.892 18.8403V20.9034H98.4589V18.8145L99.6194 18.6598C99.9688 18.6099 100.028 18.5358 100.032 18.1805L100.032 10.5879C100.032 10.3171 99.9616 10.1403 99.7308 10.0575L99.6968 10.0463L98.3184 9.56096L98.3073 9.53547L98.5879 7.46746H103.127L103.436 9.53056H103.591C104.442 8.21533 105.577 7.20957 107.227 7.20957ZM18.0752 2.39823C22.8153 2.39823 24.2496 4.90326 24.2496 7.84247C24.2496 12.2453 21.6135 14.0429 17.3592 14.0784L17.2298 14.0789H15.3596L15.3599 18.241L15.3614 18.3058L15.3646 18.3653C15.3809 18.5791 15.447 18.6308 15.7018 18.6701L15.7698 18.6798L19.4332 18.8842V20.9034H9.39042L9.39037 20.8975L9.37921 20.9034H0.466886V18.8931L2.65018 18.7146C2.98218 18.6909 3.04838 18.6008 3.05573 18.2786L3.05648 18.206V9.41772C3.05648 9.05319 2.78244 9.11333 0.873735 9.76014L0.169434 7.67323L4.53179 5.174H6.89055L6.89063 18.2431L6.89149 18.3119L6.89368 18.3736C6.90671 18.6258 6.97064 18.6886 7.26242 18.712L7.29711 18.7146L9.37921 18.8931L9.39037 18.8985L9.39042 18.8842L11.0044 18.7052C11.3389 18.6577 11.4061 18.5878 11.4136 18.2668L11.4143 18.1941V5.13321C11.4143 4.76273 11.3661 4.65448 11.0392 4.62467L11.0044 4.62186L9.39042 4.4431V2.39823H18.0752ZM31.383 15.3379L29.6561 15.4646C28.1584 15.5658 27.6251 15.9457 27.6251 16.959C27.6251 17.9726 28.2345 18.3525 29.0724 18.3525C29.9097 18.3525 30.747 17.8997 31.3292 17.4798L31.383 17.4406V15.3379ZM115.774 10.2734C113.934 10.2734 113.201 11.9958 113.186 14.2307L113.186 14.3038C113.186 16.7781 113.889 18.1556 115.472 18.1556C116.302 18.1556 117.203 17.6741 117.876 17.1088L117.934 17.0587V11.0387C117.306 10.605 116.502 10.2734 115.774 10.2734ZM16.8051 5.20484H15.3066V11.3097L16.6267 11.3096L16.7266 11.3087L16.8739 11.3054L16.9694 11.3019L17.1098 11.2946C18.6223 11.2021 20.1058 10.6282 20.1058 8.06724C20.1058 5.63517 18.6073 5.20484 16.8051 5.20484Z" fill="#151C48"/>
<path fill-rule="evenodd" clip-rule="evenodd" d="M88.7404 3.01031C94.7148 3.01031 99.5582 7.85366 99.5582 13.8281C99.5582 19.8028 94.7148 24.6459 88.7404 24.6459C82.7659 24.6459 77.9225 19.8028 77.9225 13.8281C77.9225 7.85366 82.7659 3.01031 88.7404 3.01031ZM88.7404 5.20768C83.9795 5.20768 80.1199 9.06723 80.1199 13.8281C80.1199 18.5892 83.9795 22.4486 88.7404 22.4486C93.5013 22.4486 97.3608 18.5892 97.3608 13.8281C97.3608 9.06723 93.5013 5.20768 88.7404 5.20768ZM88.7404 7.40505C92.2877 7.40505 95.1634 10.2808 95.1634 13.8281C95.1634 17.3756 92.2877 20.2512 88.7404 20.2512C85.193 20.2512 82.3173 17.3756 82.3173 13.8281C82.3173 10.2808 85.193 7.40505 88.7404 7.40505ZM89.7767 9.26436H87.7041C87.4458 9.26436 87.2347 9.48925 87.2199 9.77281L87.2191 9.80456V11.9705C87.2221 12.0509 87.2493 12.1322 87.2979 12.1967L87.3171 12.22L87.6202 12.5577C87.7398 12.6909 87.7461 12.9026 87.6391 13.044L87.6202 13.067L87.3171 13.4046C87.2632 13.4646 87.2303 13.5436 87.2237 13.6276L87.2224 13.6592L87.2191 17.8517C87.2191 18.1394 87.421 18.3745 87.6756 18.391L87.7041 18.3919H89.7767C90.0349 18.3919 90.246 18.167 90.2608 17.8834L90.2616 17.8517V15.8498C90.2616 15.7649 90.2347 15.6831 90.1861 15.6185L90.1669 15.5951L89.8638 15.2575C89.7442 15.1243 89.7379 14.9126 89.8449 14.7711L89.8638 14.7482L90.1669 14.4106C90.2208 14.3506 90.2537 14.2715 90.2604 14.1876L90.2616 14.156V9.80456C90.2616 9.50622 90.0445 9.26436 89.7767 9.26436Z" fill="#151C48"/>
</svg>
