<svg width="100" height="32" viewBox="0 0 100 32" fill="none" xmlns="http://www.w3.org/2000/svg">
<path d="M52.3519 8.28879C52.3519 9.40591 51.452 10.3058 50.3349 10.3058C49.2178 10.3058 48.3179 9.40591 48.3179 8.28879C48.3179 7.17167 49.1868 6.27177 50.3349 6.27177C51.4831 6.3028 52.3519 7.2027 52.3519 8.28879ZM44.0356 12.3539C44.0356 12.54 44.0356 12.8503 44.0356 12.8503C44.0356 12.8503 43.0737 11.6091 41.0256 11.6091C37.6432 11.6091 35.0056 14.1847 35.0056 17.7533C35.0056 21.2908 37.6122 23.8974 41.0256 23.8974C43.1047 23.8974 44.0356 22.6251 44.0356 22.6251V23.1527C44.0356 23.4009 44.2218 23.5871 44.4701 23.5871H46.9836V11.9194C46.9836 11.9194 44.6873 11.9194 44.4701 11.9194C44.2218 11.9194 44.0356 12.1366 44.0356 12.3539ZM44.0356 19.8323C43.5702 20.515 42.6392 21.1046 41.5221 21.1046C39.5361 21.1046 38.0156 19.8634 38.0156 17.7533C38.0156 15.6431 39.5361 14.4019 41.5221 14.4019C42.6082 14.4019 43.6012 15.0225 44.0356 15.6742V19.8323ZM48.8454 11.9194H51.8244V23.5871H48.8454V11.9194ZM93.3439 11.6091C91.2959 11.6091 90.3339 12.8503 90.3339 12.8503V6.3028H87.3549V23.5871C87.3549 23.5871 89.6512 23.5871 89.8685 23.5871C90.1167 23.5871 90.3029 23.3699 90.3029 23.1527V22.6251C90.3029 22.6251 91.2648 23.8974 93.3129 23.8974C96.6953 23.8974 99.3329 21.2908 99.3329 17.7533C99.3329 14.2157 96.6953 11.6091 93.3439 11.6091ZM92.8474 21.0736C91.6993 21.0736 90.7994 20.484 90.3339 19.8013V15.6431C90.7994 15.0225 91.7924 14.3709 92.8474 14.3709C94.8334 14.3709 96.3539 15.6121 96.3539 17.7222C96.3539 19.8323 94.8334 21.0736 92.8474 21.0736ZM85.8034 16.6672V23.6181H82.8244V17.0085C82.8244 15.0846 82.2038 14.3088 80.5281 14.3088C79.6282 14.3088 78.6973 14.7743 78.1077 15.457V23.5871H75.1287V11.9194H77.4871C77.7353 11.9194 77.9215 12.1366 77.9215 12.3539V12.8503C78.7904 11.9504 79.9385 11.6091 81.0867 11.6091C82.39 11.6091 83.4761 11.9815 84.3449 12.7262C85.4 13.5951 85.8034 14.7122 85.8034 16.6672ZM67.8985 11.6091C65.8504 11.6091 64.8885 12.8503 64.8885 12.8503V6.3028H61.9095V23.5871C61.9095 23.5871 64.2058 23.5871 64.423 23.5871C64.6713 23.5871 64.8574 23.3699 64.8574 23.1527V22.6251C64.8574 22.6251 65.8194 23.8974 67.8674 23.8974C71.2498 23.8974 73.8875 21.2908 73.8875 17.7533C73.9185 14.2157 71.2809 11.6091 67.8985 11.6091ZM67.402 21.0736C66.2538 21.0736 65.3539 20.484 64.8885 19.8013V15.6431C65.3539 15.0225 66.3469 14.3709 67.402 14.3709C69.388 14.3709 70.9085 15.6121 70.9085 17.7222C70.9085 19.8323 69.388 21.0736 67.402 21.0736ZM59.3339 11.6091C60.2338 11.6091 60.6993 11.7643 60.6993 11.7643V14.526C60.6993 14.526 58.2168 13.6882 56.6652 15.457V23.6181H53.6863V11.9194C53.6863 11.9194 55.9826 11.9194 56.1998 11.9194C56.448 11.9194 56.6342 12.1366 56.6342 12.3539V12.8503C57.1928 12.1987 58.403 11.6091 59.3339 11.6091ZM28.396 22.532C28.2408 22.1597 28.0857 21.7563 27.9305 21.4149C27.6823 20.8564 27.434 20.3288 27.2168 19.8323L27.1858 19.8013C25.0446 15.1466 22.7483 10.4299 20.3279 5.77528L20.2348 5.58909C19.9866 5.12362 19.7383 4.62713 19.4901 4.13063C19.1798 3.57207 18.8695 2.98248 18.373 2.42392C17.38 1.18268 15.9525 0.5 14.432 0.5C12.8805 0.5 11.4841 1.18268 10.46 2.36186C9.99458 2.92042 9.65324 3.51001 9.34293 4.06857C9.09468 4.56506 8.84643 5.06156 8.59818 5.52703L8.50509 5.71321C6.1157 10.3679 3.78837 15.0846 1.64723 19.7392L1.6162 19.8013C1.39898 20.2978 1.15073 20.8253 0.902486 21.3839C0.747331 21.7252 0.592175 22.0976 0.43702 22.501C0.033617 23.6491 -0.0905072 24.7352 0.064648 25.8524C0.405989 28.1797 1.95754 30.1346 4.09868 31.0035C4.90549 31.3448 5.74333 31.5 6.6122 31.5C6.86044 31.5 7.17075 31.469 7.419 31.4379C8.44303 31.3138 9.49808 30.9725 10.5221 30.3829C11.7944 29.6692 13.0046 28.6451 14.37 27.1557C15.7353 28.6451 16.9766 29.6692 18.2178 30.3829C19.2418 30.9725 20.2969 31.3138 21.3209 31.4379C21.5692 31.469 21.8795 31.5 22.1277 31.5C22.9966 31.5 23.8654 31.3448 24.6412 31.0035C26.8134 30.1346 28.3339 28.1486 28.6753 25.8524C28.9235 24.7663 28.7994 23.6802 28.396 22.532ZM14.401 24.1456C12.7253 22.0355 11.6392 20.0495 11.2669 18.3739C11.1117 17.6602 11.0807 17.0395 11.1738 16.481C11.2358 15.9845 11.422 15.55 11.6703 15.1777C12.2598 14.3398 13.2528 13.8123 14.401 13.8123C15.5491 13.8123 16.5732 14.3088 17.1317 15.1777C17.38 15.55 17.5661 15.9845 17.6282 16.481C17.7213 17.0395 17.6903 17.6912 17.5351 18.3739C17.1627 20.0185 16.0767 22.0045 14.401 24.1456ZM26.7824 25.6041C26.5651 27.2177 25.4791 28.6141 23.9585 29.2347C23.2138 29.545 22.407 29.6381 21.6002 29.545C20.8244 29.452 20.0486 29.2037 19.2418 28.7382C18.1247 28.1176 17.0076 27.1557 15.7043 25.7282C17.7523 23.2147 18.9936 20.9184 19.459 18.8704C19.6763 17.9084 19.7073 17.0395 19.6142 16.2327C19.4901 15.457 19.2108 14.7432 18.7764 14.1226C17.8144 12.7262 16.2008 11.9194 14.401 11.9194C12.6012 11.9194 10.9876 12.7573 10.0256 14.1226C9.59117 14.7432 9.3119 15.457 9.18777 16.2327C9.06365 17.0395 9.09468 17.9394 9.34293 18.8704C9.80839 20.9184 11.0807 23.2457 13.0977 25.7593C11.8254 27.1867 10.6773 28.1486 9.56014 28.7693C8.75334 29.2347 7.97756 29.483 7.20179 29.5761C6.36395 29.6692 5.55714 29.545 4.84343 29.2658C3.32291 28.6451 2.23682 27.2487 2.0196 25.6351C1.92651 24.8594 1.98857 24.0836 2.29888 23.2147C2.39198 22.9044 2.54713 22.5941 2.70229 22.2217C2.9195 21.7252 3.16775 21.1977 3.416 20.6702L3.44703 20.6081C5.58817 15.9845 7.88447 11.2678 10.2739 6.67517L10.367 6.48899C10.6152 6.02352 10.8634 5.52703 11.1117 5.06156C11.3599 4.56506 11.6392 4.0996 11.9806 3.6962C12.6322 2.95145 13.5011 2.54805 14.463 2.54805C15.425 2.54805 16.2939 2.95145 16.9455 3.6962C17.2869 4.0996 17.5662 4.56506 17.8144 5.06156C18.0626 5.52703 18.3109 6.02352 18.5591 6.48899L18.6522 6.67517C21.0106 11.2988 23.3069 16.0155 25.448 20.6391V20.6702C25.6963 21.1667 25.9135 21.7252 26.1617 22.2217C26.3169 22.5941 26.4721 22.9044 26.5651 23.2147C26.8134 24.0215 26.9065 24.7973 26.7824 25.6041Z" fill="#172946"/>
</svg>
