<svg width="108" height="23" viewBox="0 0 108 23" fill="none" xmlns="http://www.w3.org/2000/svg">
<path fill-rule="evenodd" clip-rule="evenodd" d="M11.4508 10.8361C14.1968 10.8361 16.4228 8.61148 16.4228 5.86732C16.4228 3.12371 14.1968 0.899048 11.4508 0.899048C8.70468 0.899048 6.47868 3.12371 6.47868 5.86732C6.47868 8.61148 8.70468 10.8361 11.4508 10.8361ZM0.0196533 17.0465C0.0196533 14.3024 2.24576 12.0784 4.99177 12.0784C7.73788 12.0784 9.9641 14.3024 9.9641 17.0465C9.9641 19.7905 7.73788 22.0149 4.99177 22.0149C2.24576 22.0149 0.0196533 19.7905 0.0196533 17.0465ZM12.9376 17.0465C12.9376 14.3024 15.1637 12.0779 17.9097 12.0779C20.6557 12.0779 22.8818 14.3024 22.8818 17.0465C22.8818 19.7905 20.6557 22.0149 17.9097 22.0149C15.1637 22.0149 12.9376 19.7905 12.9376 17.0465ZM42.0542 18.663C41.032 18.663 40.442 17.7248 40.3772 16.9877L40.377 16.986C39.408 18.2684 37.4516 18.9648 35.6564 18.9648V18.9645C31.5759 18.9645 28.2681 15.6565 28.2681 11.5755C28.2681 7.49468 31.5759 4.18676 35.6564 4.18676C37.4516 4.18676 39.2418 4.76725 40.3772 6.1658V5.09782H40.3795C40.3919 4.87639 40.575 4.69905 40.7991 4.69905H42.6523C42.8764 4.69905 43.0594 4.87639 43.0715 5.09782H43.0741V18.2412C43.0741 18.4731 42.8841 18.663 42.6523 18.663H42.0542ZM30.9646 11.5755C30.9646 14.2283 33.0685 16.3785 35.6637 16.3785C38.2587 16.3785 40.3624 14.2283 40.3624 11.5755C40.3624 8.92307 38.2587 6.77275 35.6637 6.77275C33.0685 6.77275 30.9646 8.92307 30.9646 11.5755ZM70.5702 16.9877C70.6351 17.7248 71.2251 18.663 72.2472 18.663H72.8453C73.0771 18.663 73.2669 18.4731 73.2669 18.2412V5.09782H73.2646C73.2524 4.87639 73.0692 4.69905 72.8453 4.69905H70.9921C70.768 4.69905 70.5849 4.87639 70.5724 5.09782H70.5702V6.1658C69.4347 4.76725 67.6445 4.18676 65.8493 4.18676C61.7688 4.18676 58.4611 7.49468 58.4611 11.5755C58.4611 15.6565 61.7688 18.9645 65.8493 18.9645V18.9648C67.6445 18.9648 69.601 18.2684 70.57 16.986L70.5702 16.9877ZM65.8565 16.3785C63.2615 16.3785 61.1575 14.2283 61.1575 11.5755C61.1575 8.92307 63.2615 6.77275 65.8565 6.77275C68.4518 6.77275 70.5553 8.92307 70.5553 11.5755C70.5553 14.2283 68.4518 16.3785 65.8565 16.3785ZM106 18.663C104.977 18.663 104.387 17.7248 104.323 16.9877L104.322 16.986C103.353 18.2684 101.397 18.9648 99.6019 18.9648V18.9645C95.5213 18.9645 92.2135 15.6565 92.2135 11.5755C92.2135 7.49468 95.5213 4.18676 99.6019 4.18676C101.397 4.18676 103.187 4.76725 104.323 6.1658V5.09782H104.325C104.337 4.87639 104.52 4.69905 104.744 4.69905H106.598C106.822 4.69905 107.005 4.87639 107.017 5.09782H107.02V18.2412C107.02 18.4731 106.83 18.663 106.598 18.663H106ZM94.91 11.5755C94.91 14.2283 97.0139 16.3785 99.6091 16.3785C102.204 16.3785 104.308 14.2283 104.308 11.5755C104.308 8.92307 102.204 6.77275 99.6091 6.77275C97.0139 6.77275 94.91 8.92307 94.91 11.5755ZM89.8707 17.4396L89.8698 10.6385H89.8701C89.8701 6.8047 87.4514 4.21837 83.5947 4.21837C81.7537 4.21837 80.2445 5.28299 79.7115 6.19752C79.5963 5.48243 79.2166 4.73077 78.0393 4.73077H77.4392C77.2072 4.73077 77.0176 4.92079 77.0176 5.15264V17.0206V17.0223V18.2972H77.02C77.0321 18.5183 77.2153 18.6958 77.4394 18.6958H79.2926C79.321 18.6958 79.3488 18.6925 79.3758 18.6872C79.3834 18.6857 79.3908 18.6833 79.3982 18.6808L79.3983 18.6807C79.4026 18.6793 79.407 18.6779 79.4113 18.6766L79.4247 18.6728C79.4342 18.6701 79.4437 18.6674 79.4526 18.6637C79.4654 18.6584 79.4773 18.6517 79.4892 18.6449L79.4994 18.6392C79.5027 18.6371 79.5062 18.6353 79.5096 18.6335C79.5138 18.6313 79.518 18.6292 79.522 18.6265C79.5405 18.6146 79.5575 18.6003 79.5738 18.5856C79.5765 18.5829 79.5798 18.5811 79.5825 18.5786C79.6009 18.5608 79.6177 18.5411 79.6326 18.5207L79.6327 18.5204C79.6792 18.4567 79.7073 18.38 79.7119 18.2972H79.7143V10.533C79.7143 8.47403 81.3836 6.8047 83.4428 6.8047C85.5018 6.8047 87.1711 8.47403 87.1711 10.533L87.1728 17.0228L87.1733 17.0206C87.1733 17.0234 87.1735 17.0263 87.1737 17.0292L87.1739 17.0317L87.1742 17.0384V18.2972H87.1766C87.1889 18.5183 87.3719 18.6958 87.596 18.6958H89.4493C89.4778 18.6958 89.5055 18.6925 89.5323 18.6872C89.5392 18.6859 89.5458 18.6837 89.5524 18.6815C89.5563 18.6802 89.5602 18.6789 89.5642 18.6778L89.5747 18.6748C89.5865 18.6715 89.5983 18.6682 89.6095 18.6637C89.6246 18.6575 89.6384 18.6487 89.6528 18.6406C89.6615 18.6357 89.6707 18.6321 89.6792 18.6265C89.6962 18.6153 89.7119 18.6017 89.7273 18.5883C89.729 18.5866 89.7309 18.5852 89.7327 18.5838C89.735 18.5821 89.7372 18.5803 89.7393 18.5783C89.7569 18.5613 89.7725 18.543 89.7868 18.5239C89.7878 18.5224 89.789 18.5213 89.7901 18.5198C89.8357 18.4567 89.8637 18.3805 89.8685 18.2983C89.8685 18.2977 89.8687 18.2972 89.8687 18.2972H89.8712V17.4398L89.8707 17.4396ZM51.3868 16.3787C50.089 16.3787 48.7387 15.9624 47.5015 15.1054C47.3871 15.0263 47.1254 14.9313 46.9179 15.2036L45.898 16.6602C45.898 16.6602 45.6795 16.9508 45.9923 17.2639C47.4937 18.3657 49.284 18.9652 51.3868 18.9652C54.1615 18.9652 56.6721 17.3064 56.6721 14.6222C56.6721 11.594 53.9776 10.7936 51.5075 10.1278C50.09 9.76613 48.8799 9.43242 48.8799 8.37139C48.8799 7.48659 49.811 6.77273 51.3567 6.77273C52.7952 6.77273 53.7733 7.39451 54.1351 7.62451C54.1621 7.64165 54.1856 7.65661 54.2057 7.66898C54.4949 7.84744 54.6963 7.70499 54.8115 7.5401L55.8365 6.07615C55.8365 6.07615 56.0617 5.75445 55.6919 5.47424C54.6181 4.71597 52.9619 4.18663 51.3567 4.18663C48.8232 4.18663 46.1088 5.44485 46.1088 8.4913C46.1088 10.4822 47.6162 11.7116 49.3663 12.3063C49.789 12.45 50.2721 12.5725 50.7618 12.6966C52.2991 13.0864 53.9012 13.4926 53.9012 14.6222C53.9012 15.7378 52.623 16.3787 51.3868 16.3787Z" fill="#151C48"/>
</svg>
