<svg width="154" height="26" viewBox="0 0 154 26" fill="none" xmlns="http://www.w3.org/2000/svg">
<path fill-rule="evenodd" clip-rule="evenodd" d="M17.4921 0.58418L17.4921 0.584167C17.355 0.386448 17.0872 0 16.4329 0H9.19811C8.29376 0 8.06768 0.565216 8.06768 0.565216C8.0841 0.548787 8.10292 0.525195 8.12551 0.496869C8.25837 0.330291 8.52181 0 9.19811 0C9.98941 0 10.3285 0.678259 10.3285 0.791303C10.3285 0.791303 11.3459 3.27825 12.8155 6.66955C15.9807 14.1304 20.9546 25.9999 20.9546 25.9999H28.3024C28.3024 25.9999 17.6763 0.904346 17.5633 0.678259C17.5437 0.658691 17.5208 0.625572 17.4921 0.58418ZM8.02033 0.707595C8.15796 0.512781 8.43921 0.114682 9.19817 0.114682C9.83822 0.114682 10.1085 0.558421 10.2482 0.787886C10.2813 0.842114 10.307 0.884376 10.3286 0.905984C10.3286 0.905984 11.346 3.39294 12.8156 6.78423L7.50318 19.3305H18.0155L9.65026 24.5305C9.65026 24.5305 7.38939 26 6.03288 26C5.35462 26 4.90244 25.7739 4.67636 25.2087C4.67636 25.2087 2.1894 20.687 1.3981 19.1044C1.34807 18.9793 1.29251 18.8653 1.23876 18.755C1.21744 18.7113 1.1964 18.6681 1.17611 18.6251C0.889578 18.197 0.88576 17.6463 1.05906 17.1842L7.9547 0.792941C7.97287 0.774769 7.99396 0.744913 8.02032 0.707598L8.02033 0.707595ZM46.1632 19.3305H48.9893L42.3197 4.18271H39.8328L33.1632 19.3305H35.8762L37.4588 15.7131H44.5806L46.1632 19.3305ZM38.4762 13.3392L41.0762 7.34792L43.6762 13.3392H38.4762ZM70.8066 19.3305H73.5196V6.7827H77.4762L78.4935 4.29575H66.0588V6.7827H70.8066V19.3305ZM116.137 6.7827H124.163V4.29575H113.424V19.3305H124.163V16.9566H116.137V13.0001H121.337V10.6262H116.137V6.7827ZM140.667 19.3305H143.154V11.5305L150.615 19.3305H153.893L146.433 11.5305L153.102 4.29575H149.937L143.154 11.5305V4.29575H140.667V19.3305ZM129.589 7.91313C129.589 6.89574 130.833 6.44357 132.415 6.44357C134.213 6.44357 135.393 6.97298 136.189 7.33021C136.294 7.37733 136.393 7.42144 136.485 7.46096L137.389 5.31314C137.369 5.30333 137.339 5.28587 137.297 5.26216C136.859 5.01249 135.203 4.06966 132.415 4.06966C129.363 4.06966 126.989 5.42618 126.989 8.02618C126.989 10.5131 128.911 11.6436 132.076 12.6609C134.789 13.5653 135.354 14.1305 135.354 15.1479C135.354 16.2783 134.111 17.0696 132.528 17.0696C130.72 17.0696 129.024 16.2783 127.554 15.0349L126.537 17.4088C128.12 18.7653 130.154 19.5566 132.415 19.5566C135.693 19.5566 137.954 17.8609 137.954 15.0349C137.954 12.4349 136.372 11.4175 133.206 10.4001C130.38 9.49574 129.589 9.15661 129.589 7.91313ZM78.8327 11.8696C78.8327 7.574 82.337 4.06966 86.6327 4.06966C90.9283 4.06966 94.4327 7.46096 94.4327 11.8696C94.4327 16.1653 90.9283 19.6696 86.6327 19.6696C82.337 19.6696 78.8327 16.1653 78.8327 11.8696ZM81.5457 11.8696C81.5457 14.8088 83.6935 17.1827 86.6327 17.1827C89.5718 17.1827 91.7196 14.8088 91.7196 11.8696C91.7196 8.93052 89.5718 6.55661 86.6327 6.55661C83.6935 6.55661 81.5457 8.93052 81.5457 11.8696ZM97.1457 4.29575H102.911C107.207 4.29575 110.711 7.46096 110.711 11.7566C110.711 16.0522 107.207 19.3305 102.911 19.3305H97.1457V4.29575ZM99.8587 16.9566H102.911C105.963 16.9566 108.111 14.8088 107.998 11.8696C107.998 8.93052 105.85 6.7827 102.911 6.7827H99.8587V16.9566ZM56.6762 19.5566C60.5197 19.5566 63.1197 17.1827 63.1197 12.6609H63.2327V4.29575H60.5197V13.0001C60.5197 15.6001 58.9371 17.1827 56.6762 17.1827C54.4153 17.1827 52.8327 15.6001 52.8327 13.0001V4.29575H50.2327V12.6609C50.2327 17.1827 52.8327 19.5566 56.6762 19.5566Z" fill="#151C48"/>
</svg>
