<svg width="125" height="26" viewBox="0 0 125 26" fill="none" xmlns="http://www.w3.org/2000/svg">
<path fill-rule="evenodd" clip-rule="evenodd" d="M86.956 1.81094C87.3482 1.94414 87.3766 3.80035 87.3766 4.37584V8.13457C86.7863 7.5941 85.8307 7.2967 84.6997 7.2967C81.1852 7.2967 78.4545 9.84951 78.4545 14.4922C78.4545 18.6703 80.8214 20.7583 83.887 20.7583L87.3766 19.3159L87.3758 20.5127H90.7923V1.27814H86.956V1.81094ZM87.3766 18.7288H86.0629C82.8769 18.7288 81.8214 16.3102 81.8214 13.3132C81.8214 10.2425 83.0036 8.35293 85.0683 8.35293C86.5387 8.35293 87.3766 9.48057 87.3766 11.5134V18.7288ZM61.0979 9.42906L59.9265 11.1015L59.9258 7.6651H56.7951H56.5348H56.1182V8.1979C56.4469 8.30967 56.5199 9.63286 56.5348 10.3965V20.5128H59.9265V12.5402C60.175 11.7482 61.0801 10.834 62.3374 10.834H64.3752V7.76328H63.2937C62.3426 7.76328 61.7656 8.38393 61.0979 9.42906ZM94.1585 4.12034C94.1488 3.38238 94.0854 1.92826 93.7404 1.81094V1.27814H97.5751V20.5127H94.1585V4.12034ZM106.142 7.29675C102.664 7.29675 100.072 10.2161 100.072 14.3469C100.072 18.1297 102.455 20.7583 106.02 20.7583C106.381 20.7583 106.738 20.6701 107.118 20.5126L110.683 19.0063V18.3781C110.683 18.3781 109.811 18.7289 108.351 18.7289C104.298 18.7289 103.046 16.3859 103.144 12.9905H111.156V12.3816C111.156 9.43388 109.436 7.29675 106.142 7.29675ZM103.193 12.0376C103.39 9.77765 104.275 8.15644 105.896 8.15644C107.494 8.15644 108.109 9.72861 108.109 12.0376H103.193ZM65.9727 10.5408C65.9727 8.502 68.0182 7.2915 71.1602 7.2915C74.3062 7.2915 75.9097 8.40209 75.9097 11.2763L75.9386 20.5127H72.5389V19.3246L69.1367 20.7494L68.7329 20.759C67.0051 20.759 65.4396 19.5055 65.4396 17.5402C65.4396 15.4275 66.9634 14.524 68.8068 13.836L72.518 12.4848V10.4409C72.518 9.04073 72.1399 8.15636 70.8618 8.15636C69.682 8.15636 69.0305 8.91786 69.0305 10.0971V10.8339H65.9727V10.5408ZM70.8773 18.7288H72.518V13.4353L70.4043 14.2951C69.372 14.6882 68.7331 15.2311 68.7331 16.6068C68.7331 17.8841 69.3647 18.7288 70.8773 18.7288ZM121.903 7.49316V8.01239C122.65 8.1565 122.993 9.04623 122.408 10.6554L119.777 17.0938L116.529 9.32009C116.208 8.47859 116.041 8.04148 115.925 7.49316H111.655V8.02597C112.106 8.25276 112.494 8.62806 113.22 10.0971L118.152 21.0673L117.755 22.0345C117.636 22.2728 117.34 22.542 116.877 22.542L113.347 22.5581L113.36 25.3552H115.23C116.798 25.3552 117.595 24.4297 118.121 23.3334L123.744 10.1572C124.097 9.27436 124.54 8.3875 124.903 8.08971V7.49316H121.903ZM49.1067 11.4514C49.0572 11.4598 49.0606 11.5307 49.1108 11.5342C52.1488 11.7528 54.2782 13.3646 54.2782 15.8736C54.2782 18.8437 52.019 20.5127 47.7706 20.5127H41.0041V19.9803C41.3457 19.9352 41.4185 18.504 41.4185 17.447L41.4163 5.52949C41.4163 4.74828 41.2111 4.39441 40.4486 4.39441H36.7096C36.1526 4.39441 35.8819 4.67096 35.981 5.27974C35.981 5.27974 37.0943 13.0252 37.7122 17.4169C37.7122 17.4169 37.9934 19.7182 38.3885 19.9803V20.5127H34.1916C34.1916 20.222 34.1838 19.7099 34.0478 18.6684C33.5751 15.0448 32.4245 7.33211 32.4245 7.33211L27.5617 20.5127H26.3119L21.488 7.33211L19.8577 18.6684C19.7844 19.1912 19.7229 20.0865 19.7229 20.5127H11.4211V12.2682H4.02948V20.5127H0V19.9803C0.3663 19.8557 0.414744 18.2261 0.419531 17.545V6.24985C0.414744 5.56872 0.3663 3.93912 0 3.81453V3.28229H4.02948V11.1561H11.4211V3.28229H15.4265V3.81453C15.0493 3.94274 15.0091 5.66614 15.0066 6.30746V18.4978C15.0066 19.1105 15.2657 19.4005 15.9257 19.4005H17.4872C18.1399 19.4005 18.4902 19.2046 18.5989 18.4978L20.4279 6.01847C20.5764 5.05429 20.6735 3.95328 20.2654 3.81453V3.28229H23.8039C23.8578 3.68261 24.0071 4.08525 24.1535 4.4802C24.1907 4.58051 24.2277 4.68032 24.2629 4.77947L28.13 15.2476L31.9783 4.82348C32.0016 4.75165 32.0246 4.6817 32.0473 4.61286C32.1879 4.18594 32.3144 3.80209 32.3868 3.28229H47.362C51.1439 3.28229 53.2959 4.63172 53.2959 7.45421C53.2959 9.72284 51.2833 11.0814 49.1067 11.4514ZM46.199 4.39441H45.02V11.0889H46.2234C48.6299 11.0889 49.7842 9.90926 49.7842 7.60196C49.7842 5.41772 48.4684 4.42254 46.199 4.39441ZM47.0583 19.41H47.304C49.514 19.41 50.6928 18.2546 50.6928 15.8247C50.6928 13.64 49.0583 12.1761 46.7146 12.1544H45.02V17.6967C45.02 19.0223 45.5848 19.41 47.0583 19.41Z" fill="#151C48"/>
</svg>
