<svg width="95" height="20" viewBox="0 0 95 20" fill="none" xmlns="http://www.w3.org/2000/svg">
<path d="M47.602 17.2055C47.602 17.532 47.602 17.6062 47.8222 17.8066L49.0552 19.0236V19.0756H43.5875V16.738C43.0372 18.2786 41.5818 19.2974 39.962 19.2759C37.1511 19.2759 35.1108 17.0497 35.1108 12.9533C35.1108 9.11669 37.3125 6.55648 40.4023 6.55648C41.7719 6.4693 43.0464 7.26692 43.5802 8.54528V3.38774C43.6208 3.14891 43.5241 2.90741 43.3307 2.76439L42.1564 1.62156V1.56962L47.602 0.923998V17.2055ZM43.5875 16.4634V8.76791C43.1913 8.27024 42.59 7.98543 41.9582 7.99613C40.6298 7.99613 39.3455 9.21316 39.3455 12.8272C39.3455 16.2111 40.4537 17.4059 41.8335 17.4059C42.533 17.3914 43.1842 17.0415 43.5875 16.4634ZM51.2276 19.0756V8.68628C51.2626 8.45427 51.1798 8.22003 51.0074 8.06292L49.7965 6.80137V6.74942H55.2641V17.2871C55.2641 17.6136 55.2641 17.6879 55.4843 17.8882L56.6879 19.031V19.083L51.2276 19.0756ZM51.0294 2.94991C51.0294 1.72037 52.0152 0.723633 53.2312 0.723633C54.4472 0.723633 55.4329 1.72037 55.4329 2.94991C55.4329 4.17945 54.4472 5.17618 53.2312 5.17618C52.0152 5.17618 51.0294 4.17945 51.0294 2.94991ZM70.0159 17.1832C70.0159 17.5098 70.0159 17.6062 70.236 17.8066L71.469 19.0236V19.0756H65.972V16.4115C65.4714 18.096 63.9464 19.2562 62.207 19.2759C59.7704 19.2759 58.464 17.4801 58.464 14.0813C58.464 12.4413 58.464 10.6454 58.5154 8.62691C58.5556 8.40096 58.4713 8.17074 58.2952 8.02582L57.0842 6.80137V6.74942H62.5079C62.5079 6.82363 62.5079 13.1982 62.5079 13.5247C62.5079 15.751 62.8308 17.2352 64.2106 17.2352C64.9516 17.1883 65.6193 16.767 65.9866 16.1146V8.6937C66.0216 8.46169 65.9389 8.22745 65.7665 8.07034L64.5482 6.80137V6.74942H70.0159V17.1832ZM88.628 19.0756C88.628 18.6748 88.7014 13.5692 88.7014 12.3967C88.7014 10.1705 88.3564 8.63433 86.8079 8.63433C86.0287 8.65863 85.3071 9.05512 84.863 9.70295C85.0183 10.3967 85.0922 11.1066 85.0832 11.8179C85.0832 13.3615 85.0318 15.328 85.0098 17.2945C84.9695 17.5205 85.0538 17.7507 85.2299 17.8956L86.4629 19.0385V19.0904H80.9439C80.9439 18.7194 81.0173 13.5841 81.0173 12.4116C81.0173 10.1482 80.6723 8.64917 79.1458 8.64917C78.3932 8.67647 77.7067 9.09075 77.3257 9.74747V17.3168C77.3257 17.6433 77.3257 17.7175 77.5458 17.9179L78.7495 19.0607V19.1127H73.2891V8.72338C73.3241 8.49138 73.2414 8.25713 73.0689 8.10003L71.858 6.80137V6.74942H77.3257V9.39127C77.8326 7.64703 79.4483 6.4753 81.2448 6.54905C83.0649 6.54905 84.2979 7.57314 84.8189 9.51742C85.3977 7.72426 87.0636 6.52103 88.9289 6.54905C91.3655 6.54905 92.7452 8.36718 92.7452 11.8031C92.7452 13.4431 92.6939 15.3132 92.6718 17.2797C92.6291 17.5125 92.7271 17.7487 92.9214 17.8808L94.125 19.0236V19.0756H88.628ZM19.9407 17.4578L21.5627 19.0236V19.0756H13.3355V19.0236L14.9868 17.4578C15.1629 17.3129 15.2472 17.0827 15.207 16.8567V6.84589C15.207 6.4229 15.207 5.85149 15.2804 5.36171L9.73196 19.2759H9.66591L3.91935 6.47485C3.79458 6.15575 3.75789 6.13348 3.67716 5.91828V14.3113C3.60836 14.8731 3.70271 15.4429 3.9487 15.9514L6.26054 19.0236V19.0756H0.125V19.0236L2.43684 15.9439C2.68102 15.4376 2.77531 14.8706 2.70839 14.3113V5.03519C2.74598 4.57845 2.60944 4.12447 2.32675 3.76621L0.690116 1.62156V1.56962H6.56145L11.4787 12.4116L15.8088 1.56962H21.5554V1.62156L19.9407 3.43969C19.7473 3.58272 19.6506 3.82421 19.6912 4.06305V16.8567C19.6484 17.0895 19.7465 17.3257 19.9407 17.4578ZM26.3772 12.4413V12.4932C26.3772 15.6694 27.9991 16.9458 29.9 16.9458C31.4872 17.0006 32.9562 16.1006 33.643 14.6527H33.6943C33.0338 17.7917 31.1109 19.2759 28.234 19.2759C25.1295 19.2759 22.2012 17.3836 22.2012 12.9978C22.2012 8.38944 25.1369 6.54905 28.3808 6.54905C30.9935 6.54905 33.7751 7.79577 33.7751 11.8031C33.7751 11.8773 33.7751 12.1444 33.7751 12.4413H26.3772ZM26.3772 11.8031H29.9954C29.9954 11.4765 29.9954 11.2539 29.9954 11.1574C29.9954 7.89224 29.3275 7.02399 28.3221 7.02399C27.1038 7.02399 26.3625 8.32265 26.3625 11.8031H26.3772Z" fill="#172946"/>
</svg>
