<svg width="94" height="34" viewBox="0 0 94 34" fill="none" xmlns="http://www.w3.org/2000/svg">
<path fill-rule="evenodd" clip-rule="evenodd" d="M9.08955 7.06628C7.37576 7.18201 6.98634 7.2083 6.01311 6.41767L3.53818 4.45334C3.28575 4.19933 3.41236 3.88247 4.0461 3.81962L21.4237 2.55215C22.882 2.42514 23.6429 2.93291 24.214 3.37627L27.1945 5.53096C27.3214 5.59406 27.638 5.97379 27.2573 5.97379L9.31079 7.05141C9.23465 7.05649 9.16095 7.06146 9.08955 7.06628ZM7.0906 29.4829V10.6C7.0906 9.77644 7.3443 9.39596 8.1049 9.33205L28.7159 8.12848C29.4149 8.06511 29.7315 8.50899 29.7315 9.33205V28.0882C29.7315 28.9126 29.6044 29.6106 28.4624 29.6734L8.73916 30.8146C7.59773 30.8774 7.0906 30.4978 7.0906 29.4829ZM25.9894 12.8184C26.5613 12.7542 26.6877 12.1839 26.5613 11.613L22.1841 11.8678C21.5498 11.9306 21.0432 12.4374 21.1698 13.1352L22.8191 13.3246V22.0696L16.3501 12.1841L11.6568 12.5005C10.7683 12.5644 10.4517 13.3874 10.5788 13.9583L12.1639 14.0853V26.5688L11.0223 26.8852C10.5785 27.0121 10.4514 27.6452 10.5785 27.899L14.9534 27.6452C16.5404 27.6452 16.5404 26.5052 16.5404 26.5052L14.5734 26.0613V16.6197L20.7895 26.3782C21.5498 27.3281 21.804 27.6452 22.8191 27.6452C23.4531 27.6452 24.214 27.3917 25.039 26.9483V13.0077L25.9894 12.8184ZM20.6626 0.777698L2.58703 2.1088C1.12952 2.23502 0.621582 3.18588 0.621582 4.32582V24.0962C0.621582 24.9845 0.938195 25.7437 1.69958 26.7584L5.94865 32.2713C6.64659 33.159 7.28088 33.349 8.6136 33.2854L29.6046 32.0178C31.38 31.8917 31.8878 31.0673 31.8878 29.6734V7.43111C31.8878 6.71054 31.6027 6.50239 30.7622 5.88878C30.716 5.85502 30.6681 5.82003 30.6184 5.78367L24.8485 1.7283C23.4534 0.714845 22.8823 0.587319 20.6626 0.777698ZM74.0931 11.5184C74.0931 12.2194 73.5203 12.7751 72.8193 12.7751C72.1268 12.7751 71.554 12.2194 71.554 11.5184C71.554 10.8259 72.1268 10.2616 72.8193 10.2616C73.5203 10.2616 74.0931 10.8259 74.0931 11.5184ZM73.8794 23.6841H71.7677V14.3397H73.8794V23.6841ZM45.8563 15.186V23.6841H43.7275V11.3474H45.6425L51.6955 19.8454H51.8408V11.3474H53.9611V23.6841H52.0546L46.0016 15.186H45.8563ZM64.4477 19.0076C64.4477 22.0426 62.7464 23.8722 59.9508 23.8722C57.1466 23.8722 55.4538 22.0426 55.4538 19.0076C55.4538 15.9982 57.1722 14.1601 59.9508 14.1601C62.7379 14.1601 64.4477 15.9897 64.4477 19.0076ZM57.6253 19.0162C57.6253 20.9911 58.4717 22.1367 59.9508 22.1367C61.4298 22.1367 62.2676 20.9911 62.2676 19.0162C62.2676 17.0413 61.4212 15.8956 59.9508 15.8956C58.4717 15.8956 57.6253 17.0413 57.6253 19.0162ZM66.385 12.0484V14.3995H64.906V16.0495H66.385V21.2048C66.385 23.0087 67.2399 23.7269 69.3858 23.7269C69.7962 23.7269 70.1895 23.6927 70.4973 23.6328V22.0084L70.4765 22.0105C70.2318 22.035 70.0702 22.0512 69.7791 22.0512C68.89 22.0512 68.4967 21.6323 68.4967 20.7004V16.0495H70.4973V14.3995H68.4967V12.0484H66.385ZM79.6724 23.8722C82.4681 23.8722 84.1694 22.0426 84.1694 19.0076C84.1694 15.9897 82.4595 14.1601 79.6724 14.1601C76.8939 14.1601 75.1755 15.9982 75.1755 19.0076C75.1755 22.0426 76.8682 23.8722 79.6724 23.8722ZM79.6724 22.1367C78.1934 22.1367 77.347 20.9911 77.347 19.0162C77.347 17.0413 78.1934 15.8956 79.6724 15.8956C81.1429 15.8956 81.9893 17.0413 81.9893 19.0162C81.9893 20.9911 81.1515 22.1367 79.6724 22.1367ZM87.5515 23.6841H85.4313V14.3397H87.4746V15.8358H87.6199C88.0645 14.7928 89.0049 14.1601 90.3985 14.1601C92.4845 14.1601 93.6216 15.4169 93.6216 17.6397V23.6841H91.5013V18.1356C91.5013 16.6822 90.9029 15.9555 89.6119 15.9555C88.3466 15.9555 87.5515 16.8361 87.5515 18.2382V23.6841Z" fill="#172946"/>
</svg>
