<svg width="46" height="27" viewBox="0 0 46 27" fill="none" xmlns="http://www.w3.org/2000/svg">
<path d="M12.1915 23.7425L7.05735 14.276H4.30478V23.7425H0.762329V3.80426H7.27276C9.29531 3.80426 10.9469 4.1992 12.2394 4.98906C13.5319 5.80287 14.1781 7.07145 14.1781 8.80674C14.1781 10.9729 12.7181 12.6484 10.4442 13.558L16.428 23.7544H12.1915V23.7425ZM4.30478 13.8332H6.09993C8.70887 13.8332 10.5639 12.0381 10.5639 8.91446C10.5639 5.68319 8.76877 4.22313 6.15977 4.22313H4.30478V13.8332Z" fill="#151C48"/>
<path d="M17.4453 1.98516L20.6168 0.94397V11.3918C22.0169 9.95568 23.6207 9.26153 25.4158 9.26153C27.9768 9.26153 29.7361 10.6618 29.7361 14.0127V23.7544H26.5647V13.3904C26.5647 11.4516 25.7748 10.4703 24.1831 10.4703C22.9744 10.4703 21.8015 10.8891 20.6168 11.7029V23.7544H17.4453V1.98516Z" fill="#151C48"/>
<path d="M31.7109 16.6696C31.7109 14.3718 32.417 12.5407 33.8171 11.2243C35.1934 9.9078 36.845 9.26154 38.7838 9.26154C40.7225 9.26154 42.41 9.9078 43.8102 11.2243C45.1865 12.5407 45.8926 14.3718 45.8926 16.6696C45.8926 18.9673 45.1865 20.7745 43.8102 22.091C42.41 23.4074 40.7225 24.0895 38.7838 24.0895C36.845 24.0895 35.1934 23.4194 33.8171 22.091C32.417 20.7745 31.7109 18.9673 31.7109 16.6696ZM35.1336 16.6696C35.1336 18.9195 35.4687 20.6548 36.1748 21.8635C36.845 23.0962 37.7186 23.7186 38.7838 23.7186C39.8489 23.7186 40.7225 23.0962 41.4286 21.8875C42.1347 20.6788 42.4698 18.9434 42.4698 16.6696C42.4698 14.3957 42.1347 12.6484 41.4286 11.4516C40.7225 10.2429 39.8608 9.62055 38.7838 9.62055C37.7186 9.62055 36.845 10.2429 36.1748 11.4516C35.4687 12.6843 35.1336 14.4196 35.1336 16.6696Z" fill="#151C48"/>
</svg>
