<svg width="590" height="535" viewBox="0 0 590 535" fill="none" xmlns="http://www.w3.org/2000/svg">
<path d="M14.0896 2H575.91C582.84 2 588 6.87942 588 12.3699V522.63C588 528.121 582.84 533 575.91 533H14.0896C7.16016 533 2 528.121 2 522.63V12.3699C2 6.87942 7.16016 2 14.0896 2Z" fill="#EEF1FD" stroke="#C6CDE8" stroke-width="4"/>
<path fill-rule="evenodd" clip-rule="evenodd" d="M14.0896 0H575.91C583.692 0 590 5.57157 590 12.4444V42H0V12.4444C0 5.57157 6.30811 0 14.0896 0Z" fill="#C6CDE8"/>
<path d="M25.1806 27.8134C28.5941 27.8134 31.3613 25.0463 31.3613 21.6328C31.3613 18.2193 28.5941 15.4521 25.1806 15.4521C21.7672 15.4521 19 18.2193 19 21.6328C19 25.0463 21.7672 27.8134 25.1806 27.8134Z" fill="#9DA5C3"/>
<path d="M43.7217 27.8134C47.1351 27.8134 49.9023 25.0463 49.9023 21.6328C49.9023 18.2193 47.1351 15.4521 43.7217 15.4521C40.3082 15.4521 37.541 18.2193 37.541 21.6328C37.541 25.0463 40.3082 27.8134 43.7217 27.8134Z" fill="#9DA5C3"/>
<path d="M62.2646 27.8134C65.6781 27.8134 68.4453 25.0463 68.4453 21.6328C68.4453 18.2193 65.6781 15.4521 62.2646 15.4521C58.8512 15.4521 56.084 18.2193 56.084 21.6328C56.084 25.0463 58.8512 27.8134 62.2646 27.8134Z" fill="#9DA5C3"/>
<path d="M553.742 65H37.1436C33.1983 65 30 67.768 30 71.1826V503.786C30 507.201 33.1983 509.969 37.1436 509.969H553.742C557.687 509.969 560.885 507.201 560.885 503.786V71.1826C560.885 67.768 557.687 65 553.742 65Z" fill="white"/>
<path opacity="0.15" d="M359.064 125.618H110.293C107.733 125.618 105.657 127.693 105.657 130.253V131.876C105.657 134.436 107.733 136.511 110.293 136.511H359.064C361.624 136.511 363.699 134.436 363.699 131.876V130.253C363.699 127.693 361.624 125.618 359.064 125.618Z" fill="#004283"/>
<path opacity="0.05" d="M274.228 436.918H110.293C107.733 436.918 105.657 438.993 105.657 441.553V443.176C105.657 445.736 107.733 447.811 110.293 447.811H274.228C276.788 447.811 278.863 445.736 278.863 443.176V441.553C278.863 438.993 276.788 436.918 274.228 436.918Z" fill="#004283"/>
<path d="M274.363 388.456L291.619 399.555L278.892 408.466L274.363 388.456Z" fill="#F2994A"/>
<path d="M313.363 286.456L330.618 297.555L317.892 306.466L313.363 286.456Z" fill="#95E8F4"/>
<mask id="mask0" mask-type="alpha" maskUnits="userSpaceOnUse" x="446" y="280" width="100" height="66">
<rect x="446.508" y="280.794" width="99.3807" height="64.7577" fill="#FFE7D1"/>
</mask>
<g mask="url(#mask0)">
<rect x="446.508" y="280.794" width="99.3807" height="64.7577" fill="#FFE7D1"/>
<path fill-rule="evenodd" clip-rule="evenodd" d="M502.25 312.576C504.071 310.439 505.303 307.82 505.097 304.885C504.504 296.429 492.733 298.289 490.443 302.557C488.154 306.825 488.426 317.65 491.385 318.413C492.565 318.717 495.079 317.972 497.638 316.43L496.032 327.792H505.515L502.25 312.576Z" fill="#F5D7C6"/>
<path fill-rule="evenodd" clip-rule="evenodd" d="M502.978 314.479C504.169 309.184 507.559 305.574 507.041 303.208C506.696 301.63 505.776 300.649 504.281 300.264C503.508 297.136 501.014 295.806 496.8 296.273C490.478 296.974 486.62 299.599 488.286 305.375C489.818 305.375 491.667 304.822 494.223 305.771C495.035 306.072 495.615 307.006 495.964 308.572H497.12C498.241 306.713 499.347 306.03 500.437 306.523C501.527 307.015 501.774 308.212 501.18 310.113L501.749 314.479H502.978Z" fill="#191847"/>
<path fill-rule="evenodd" clip-rule="evenodd" d="M500.102 321.205L496.686 320.619C484.009 331.57 478.802 352.608 463.263 363.753L467.003 368.389C493.96 365.051 500.641 339.39 500.102 321.205Z" fill="#CF8631"/>
<path fill-rule="evenodd" clip-rule="evenodd" d="M514.996 364.143C501.297 364.143 491.22 364.143 484.765 364.143C483.383 364.143 483.644 362.148 483.843 361.141C486.148 349.525 495.145 337.002 495.145 320.466L503.865 319.099C511.077 330.699 513.572 344.981 514.996 364.143Z" fill="#DF9846"/>
<path fill-rule="evenodd" clip-rule="evenodd" d="M514.753 330.501C516.02 330.137 517.023 329.288 517.762 327.954C520.949 322.203 519.798 319.037 516.392 317.996C512.986 316.955 509.948 319.099 504.521 319.099C504.226 319.099 503.956 319.117 503.71 319.154L500.98 319.31C493.148 345.855 490.988 363.564 494.5 372.44H518.295C519.704 375.727 521.053 378.493 522.342 380.738H528.825C529.435 361.008 524.745 344.263 514.753 330.501Z" fill="#F4AE5C"/>
</g>
<mask id="mask1" mask-type="alpha" maskUnits="userSpaceOnUse" x="446" y="422" width="100" height="66">
<rect x="446.508" y="422.31" width="99.3807" height="64.7577" fill="#FFE7D1"/>
</mask>
<g mask="url(#mask1)">
<rect opacity="0.4" x="446.508" y="422.31" width="99.3807" height="64.7577" fill="#A5F6AE"/>
<path fill-rule="evenodd" clip-rule="evenodd" d="M515.683 447.916C517.311 446.005 518.412 443.664 518.228 441.04C517.698 433.481 507.175 435.144 505.128 438.959C503.081 442.774 503.324 452.452 505.97 453.134C507.025 453.406 509.272 452.74 511.56 451.361L510.124 461.519H518.602L515.683 447.916Z" fill="#D4A181"/>
<path fill-rule="evenodd" clip-rule="evenodd" d="M509.96 434.562C511.077 434.378 514.085 434.252 514.64 434.252C514.995 434.252 515.379 434.333 515.589 434.008C515.761 433.741 515.698 433.29 515.749 432.981C515.809 432.622 515.893 432.267 515.979 431.913C516.223 430.906 516.591 429.948 517.107 429.049C518.074 427.361 519.491 426.04 521.28 425.271C523.255 424.421 525.491 424.227 527.615 424.399C529.889 424.584 531.948 425.334 534.095 426.041C536.14 426.714 538.283 426.979 540.423 426.65C542.579 426.319 544.208 425.15 546.027 424.041C547.888 422.906 550.016 422.163 552.216 422.334C554.271 422.493 556.164 423.342 557.863 424.475C559.452 425.535 560.764 426.81 561.504 428.606C562.301 430.537 562.3 432.656 560.99 434.363C559.092 436.837 555.567 437.477 552.635 437.413C550.939 437.376 549.273 437.067 547.672 436.504C545.536 435.752 543.691 434.479 541.693 433.446C540.755 432.962 539.786 432.564 538.77 432.277C537.785 431.998 536.814 431.871 535.921 432.466C534.977 433.096 534.131 433.715 533.051 434.109C532.015 434.488 530.917 434.699 529.813 434.691C527.665 434.674 525.548 434.005 523.462 433.557C521.761 433.191 519.941 432.827 518.206 433.178C517.483 433.325 516.426 433.628 516.164 434.38C520.564 435.177 522.291 440.618 521.051 444.612C520.382 446.768 516.358 449.288 514.794 448.154C513.802 447.436 514.404 446.494 514.794 445.871C515.539 444.68 515.794 443.149 514.415 442.32C513.224 441.604 511.973 443.303 511.949 443.301C511.622 443.276 508.795 441.677 506.847 439.344C504.926 439.458 504.635 438.191 505.093 437.155C505.552 436.119 508.416 434.815 509.96 434.562Z" fill="#191847"/>
<path fill-rule="evenodd" clip-rule="evenodd" d="M488.929 481.164L476.13 475.543C473.888 473.309 471.723 471.611 469.635 470.449C469.01 470.25 467.943 470.19 469.082 471.852C470.22 473.515 471.342 475.314 470.887 475.897C470.433 476.48 469.115 475.837 468.595 476.784C468.248 477.416 470.468 478.171 475.256 479.051L484.842 486.4L488.929 481.164ZM540.675 482.713L533.437 484.149C540.716 497.715 544.62 504.905 545.148 505.719C546.337 507.55 545.228 510.907 544.818 512.674C547.388 513.273 546.374 509.405 549.626 510.212C552.595 510.949 555.111 512.841 557.879 510.29C558.219 509.976 558.469 508.996 557.308 508.493C554.418 507.24 550.147 504.894 549.455 503.984C548.511 502.742 545.584 495.651 540.675 482.713Z" fill="#D4A181"/>
<path fill-rule="evenodd" clip-rule="evenodd" d="M513.764 455.631L510.71 455.107C504.057 461.56 501.342 477.065 496.908 479.117C492.716 481.058 486.774 479.18 479.711 476.645L477.547 481.478C483.965 488.421 497.637 494.287 503.179 490.938C512.04 485.584 514.085 466.461 513.764 455.631Z" fill="#84C18E"/>
<path fill-rule="evenodd" clip-rule="evenodd" d="M527.078 494.016C514.831 494.016 505.822 494.016 500.052 494.016C498.817 494.016 499.049 492.233 499.228 491.333C501.288 480.948 509.331 469.753 509.331 454.97L517.127 453.747C523.575 464.118 525.805 476.886 527.078 494.016Z" fill="#9BD9A5"/>
<path fill-rule="evenodd" clip-rule="evenodd" d="M529.774 483.501C535.283 493.439 539.914 500.594 543.667 504.966L549.332 503.857C545.683 481.226 535.116 464.523 517.63 453.747H517.541H514.543C507.545 477.604 505.615 493.499 508.755 501.434H533.083C532.698 495.628 531.464 489.488 529.774 483.501H529.774Z" fill="#C9FACE"/>
</g>
<mask id="mask2" mask-type="alpha" maskUnits="userSpaceOnUse" x="446" y="351" width="100" height="66">
<rect x="446.508" y="351.552" width="99.3807" height="64.7577" fill="#FFE7D1"/>
</mask>
<g mask="url(#mask2)">
<rect x="446.508" y="351.552" width="99.3807" height="64.7577" fill="#B9EEF5"/>
<path fill-rule="evenodd" clip-rule="evenodd" d="M511.51 371.439C513.041 369.642 514.077 367.44 513.904 364.972C513.405 357.862 503.508 359.426 501.583 363.015C499.657 366.603 499.886 375.706 502.374 376.347C503.367 376.603 505.48 375.976 507.632 374.679L506.281 384.233H514.255L511.51 371.439Z" fill="#B28B67"/>
<path fill-rule="evenodd" clip-rule="evenodd" d="M500.83 364.626C500.909 364.161 501.102 363.644 501.258 363.204C501.459 362.637 501.763 362.125 502.097 361.643C502.727 360.736 503.482 359.916 504.316 359.236C505.839 357.993 507.778 357.277 509.685 357.51C510.647 357.627 511.582 357.994 512.377 358.605C513.096 359.158 513.787 359.971 514.718 360.029C515.73 360.093 516.658 359.199 517.471 358.647C518.386 358.025 519.36 357.571 520.43 357.395C522.223 357.1 523.907 357.705 525.143 359.176C526.457 360.741 527.413 363.037 526.55 365.111C526.389 365.496 526.183 365.821 525.886 366.09C525.615 366.337 525.2 366.6 525.089 366.995C524.972 367.414 525.322 367.956 525.457 368.334C525.652 368.876 525.811 369.446 525.754 370.035C525.661 371.003 525.053 371.927 524.411 372.564C523.757 373.211 522.952 373.583 522.093 373.754C521.519 373.868 520.933 373.931 520.349 373.888C520.06 373.867 519.804 373.786 519.524 373.722C519.251 373.66 519.099 373.733 518.867 373.882C517.792 374.577 516.636 374.846 515.395 374.743C514.347 374.656 513.139 374.402 512.285 373.684C511.336 372.887 511.354 371.787 511.578 370.613C511.341 370.73 510.687 370.802 511.078 370.335C511.233 370.15 511.526 370.075 511.724 369.966C511.956 369.839 512.191 369.675 512.371 369.468C513.097 368.633 512.364 366.934 511.451 366.654C510.095 366.238 509.792 368.155 508.824 368.651C508.268 368.936 507.686 368.546 507.269 368.148C506.71 367.615 506.33 366.909 506.001 366.19C505.73 365.598 505.479 364.998 505.203 364.409C505.074 364.134 504.628 363.357 504.852 363.046C503.881 362.852 502.799 363.256 501.963 363.785C501.618 364.003 501.354 364.245 501.17 364.631C501.13 364.714 501.044 364.96 500.936 364.97C500.735 364.988 500.81 364.743 500.83 364.626Z" fill="#191847"/>
<path fill-rule="evenodd" clip-rule="evenodd" d="M514.895 411.725L498.588 452.997L487.651 487.889H483.333L500.053 411.725L514.895 411.725Z" fill="#3D2216"/>
<path fill-rule="evenodd" clip-rule="evenodd" d="M518.178 411.725C518.352 426.229 520.884 445.755 521.288 446.659C521.558 447.261 530.869 454.926 549.222 469.652L546.247 472.835C524.593 460.209 513.265 453.054 512.263 451.37C510.76 448.844 505.866 425.6 501.938 411.725H518.178Z" fill="#57331F"/>
<path fill-rule="evenodd" clip-rule="evenodd" d="M503.931 484.295L483.397 482.067L498.615 411.725H517.006L503.931 484.295Z" fill="#212D2F"/>
<path fill-rule="evenodd" clip-rule="evenodd" d="M544.975 464.517L531.506 480.459C517.32 464.965 509.049 454.855 506.694 450.13C504.339 445.404 502.222 432.603 500.343 411.725H521.048C522.075 430.092 522.766 439.703 523.124 440.558C523.481 441.412 530.765 449.399 544.975 464.517Z" fill="#344A4D"/>
<path fill-rule="evenodd" clip-rule="evenodd" d="M488.504 377.665L475.911 373.885C473.562 372.056 471.346 370.719 469.263 369.874C468.658 369.76 467.655 369.826 468.908 371.247C470.161 372.669 471.415 374.22 471.057 374.816C470.7 375.412 469.396 374.963 469.019 375.907C468.767 376.536 470.927 376.987 475.497 377.259L485.288 383.021L488.504 377.665ZM489.616 399.867L479.019 407.649C476.145 408.425 473.743 409.39 471.815 410.544C471.359 410.959 470.809 411.8 472.698 411.655C474.587 411.509 476.581 411.441 476.841 412.086C477.102 412.73 475.959 413.501 476.486 414.37C476.837 414.95 478.497 413.496 481.465 410.01L491.959 405.658L489.616 399.867Z" fill="#B28B67"/>
<path fill-rule="evenodd" clip-rule="evenodd" d="M506.077 378.91C500.306 389.671 491.961 397.919 479.862 406.494L484.443 411.66C497.952 406.64 505.081 403.611 508.582 393.444C509.461 390.892 510.075 382.758 510.602 378.479L506.077 378.91Z" fill="#5BC5D4"/>
<path fill-rule="evenodd" clip-rule="evenodd" d="M522.21 414.762H496.628C502.423 397.089 505.383 384.959 505.509 378.373C505.515 378.038 506.135 377.446 506.41 377.523C508.416 378.09 510.563 377.878 512.85 376.888C518.915 386.641 521.012 398.65 522.21 414.762Z" fill="#72D4E2"/>
<path fill-rule="evenodd" clip-rule="evenodd" d="M510.668 376.904C503.335 376.964 491.438 378.303 477.717 373.898L476.362 380.666C486.732 387.336 497.233 392.502 506.434 391.769C502.438 408.907 502.622 422.937 511.443 422.937C515.656 422.937 520.202 422.937 525.083 422.937C527.25 408.378 521.556 388.191 516.278 378.01C516.076 377.621 515.647 376.888 514.636 376.888C513.755 376.888 512.434 376.888 510.673 376.888C510.671 376.893 510.669 376.898 510.668 376.904Z" fill="#95E8F4"/>
</g>
<mask id="mask3" mask-type="alpha" maskUnits="userSpaceOnUse" x="446" y="210" width="100" height="65">
<rect x="446.508" y="210.036" width="99.3807" height="64.7577" fill="#FFE7D1"/>
</mask>
<g mask="url(#mask3)">
<rect x="446.508" y="210.036" width="99.3807" height="64.7577" fill="#FFC3C3"/>
<path fill-rule="evenodd" clip-rule="evenodd" d="M543.046 244.594C544.577 242.797 545.613 240.594 545.44 238.127C544.941 231.017 535.044 232.581 533.119 236.17C531.194 239.758 531.422 248.86 533.91 249.502C534.903 249.758 537.017 249.131 539.168 247.834L537.818 257.388H545.791L543.046 244.594Z" fill="#915B3C"/>
<path fill-rule="evenodd" clip-rule="evenodd" d="M538.769 238.912C538.464 243.164 537.657 245.29 536.347 245.29C534.383 245.29 532.716 244.043 531.854 244.043C531.226 244.043 531.366 244.829 531.783 245.412C532.126 245.893 533.8 246.356 533.8 247.102C533.8 247.848 532.478 247.271 532.478 247.713C532.478 248.445 532.245 249.82 533.515 249.82C534.8 249.82 538.484 249.352 539.115 247.445C539.523 246.214 539.786 243.664 539.906 239.794C539.984 239.784 540.063 239.78 540.143 239.78C541.244 239.78 542.137 240.672 542.137 241.773C542.137 242.332 541.907 242.837 541.536 243.199C541.997 243.85 542.514 244.53 543.107 245.232C545.332 243.897 546.983 239.989 544.808 236.234C544.206 234.395 542.845 233.413 541.237 232.956C539.935 232.412 538.583 232.35 537.442 232.677C535.204 232.869 533.207 233.551 532.641 233.956C532.641 236.074 533.051 236.703 536.556 236.647C537.418 237.102 538.08 237.885 538.769 238.912Z" fill="#191847"/>
<path fill-rule="evenodd" clip-rule="evenodd" d="M530.943 264.229L519.412 257.913C517.494 255.636 515.605 253.867 513.744 252.607C513.175 252.37 512.18 252.226 513.11 253.877C514.04 255.528 514.945 257.306 514.471 257.815C513.997 258.323 512.815 257.613 512.25 258.458C511.873 259.021 513.892 259.911 518.306 261.127L526.685 268.799L530.943 264.229Z" fill="#915B3C"/>
<path d="M514.987 222.86H458.817C458.039 222.86 457.408 223.324 457.408 223.898V266.704C457.408 267.277 458.039 267.741 458.817 267.741H514.987C515.765 267.741 516.395 267.277 516.395 266.704V223.898C516.395 223.324 515.765 222.86 514.987 222.86Z" fill="#FFEDED"/>
<path fill-rule="evenodd" clip-rule="evenodd" d="M458.817 222.86H514.987C515.765 222.86 516.395 223.71 516.395 224.76V229.272H457.408V224.76C457.408 223.71 458.039 222.86 458.817 222.86Z" fill="#AE4D4D"/>
<circle cx="461.255" cy="226.066" r="1.28233" fill="#FFA09F"/>
<circle cx="465.102" cy="226.066" r="1.28233" fill="#FFA09F"/>
<circle cx="468.949" cy="226.066" r="1.28233" fill="#FFA09F"/>
<path fill-rule="evenodd" clip-rule="evenodd" d="M512.883 269.558L507.817 266.775C507.107 264.071 506.257 262.71 505.269 262.693C504.509 262.34 505.832 265.757 504.392 265.461C502.953 265.164 499.439 262.551 498.834 263.082C497.938 263.867 498.737 266.277 499.678 267.476C501.436 269.716 502.893 270.483 506.491 271.486C508.373 272.011 510.407 273.062 512.594 274.641L512.883 269.558Z" fill="#915B3C"/>
<path d="M536.559 262.822C532.52 262.779 527.134 261.926 521.387 258.278L519.13 263.311C523.094 267.246 528.668 270.478 533.542 270.341C537.383 270.233 539.346 265.587 536.559 262.822Z" fill="#EE8685"/>
<path d="M531.12 270.894C526.832 271.963 519.642 270.702 509.548 267.11C507.045 272.29 505.887 275.982 506.076 278.188C514.735 282.711 522.156 284.728 528.27 284.861C528.076 288.489 528.518 291.941 530.001 295.095C533.051 301.579 550.908 295.574 556.912 296.756C560.672 284.545 553.402 279.583 553.396 271.769C553.39 263.213 546.519 250.043 545.508 250.043L536.29 250.043C535.781 256.577 533.221 263.779 531.12 270.894Z" fill="#FFA09F"/>
</g>
<rect x="251.202" y="160.586" width="3.20583" height="19.8761" fill="#FFA09F"/>
<rect x="302" y="262" width="3.20583" height="19.8761" fill="#95E8F4"/>
<rect x="291.492" y="408.964" width="55.1403" height="15.388" fill="#F2994A"/>
<path d="M274.363 170.456L291.619 181.555L278.892 190.466L274.363 170.456Z" fill="#FFA1A1"/>
<rect x="287" y="187" width="55.1403" height="15.388" fill="#FFA1A1"/>
<path d="M141.363 459.456L158.619 470.555L145.892 479.466L141.363 459.456Z" fill="#A5F6AE"/>
<rect x="156" y="479" width="55.1403" height="15.388" fill="#A5F6AE"/>
<rect x="327.492" y="305.964" width="55.1403" height="15.388" fill="#95E8F4"/>
<rect opacity="0.15" x="106" y="207" width="248" height="11" rx="5.5" fill="#004283"/>
<rect opacity="0.05" x="106" y="227" width="257" height="11" rx="5.5" fill="#004283"/>
<rect opacity="0.05" x="106" y="247" width="236" height="11" rx="5.5" fill="#004283"/>
<rect opacity="0.05" x="106" y="267" width="229" height="11" rx="5.5" fill="#004283"/>
<rect opacity="0.05" x="125" y="334" width="149" height="11" rx="5.5" fill="#004283"/>
<rect opacity="0.05" x="125" y="354" width="177" height="11" rx="5.5" fill="#004283"/>
<rect opacity="0.05" x="125" y="374" width="210" height="11" rx="5.5" fill="#004283"/>
<rect opacity="0.05" x="125" y="394" width="126" height="11" rx="5.5" fill="#004283"/>
<rect opacity="0.05" x="106" y="146" width="239" height="11" rx="5.5" fill="#004283"/>
<rect opacity="0.05" x="106" y="166" width="148" height="11" rx="5.5" fill="#004283"/>
<rect opacity="0.15" x="106" y="314" width="173" height="11" rx="5.5" fill="#004283"/>
</svg>
