<svg width="688" height="396" viewBox="0 0 688 396" fill="none" xmlns="http://www.w3.org/2000/svg">
<ellipse opacity="0.1" cx="142" cy="372.5" rx="138" ry="23.5" fill="#A3C7FE"/>
<ellipse opacity="0.1" cx="523" cy="372.5" rx="138" ry="23.5" fill="#FFA1A1"/>
<g filter="url(#filter0_d)">
<path d="M429 158C429 220.132 248.389 277 239 277C229.611 277 222 226.632 222 164.5C222 102.368 229.611 52 239 52C248.389 52 429 95.868 429 158Z" fill="#A3C7FE"/>
</g>
<g filter="url(#filter1_d)">
<path d="M443 164.5C443 226.632 435.389 277 426 277C416.611 277 230 220.132 230 158C230 95.868 416.611 52 426 52C435.389 52 443 102.368 443 164.5Z" fill="#FFA1A1"/>
</g>
<path d="M444.219 47H227.316C224.312 47 221.877 49.4354 221.877 52.4396V276.821C221.877 279.825 224.312 282.261 227.316 282.261H444.219C447.223 282.261 449.658 279.825 449.658 276.821V52.4396C449.658 49.4354 447.223 47 444.219 47Z" fill="#F2F2F2"/>
<path fill-rule="evenodd" clip-rule="evenodd" d="M227.316 47H444.219C447.223 47 449.658 49.4354 449.658 52.4396V65.3585H221.877V52.4396C221.877 49.4354 224.312 47 227.316 47Z" fill="#C5CFD6"/>
<path d="M230.716 59.2394C232.218 59.2394 233.436 58.0217 233.436 56.5196C233.436 55.0175 232.218 53.7998 230.716 53.7998C229.214 53.7998 227.996 55.0175 227.996 56.5196C227.996 58.0217 229.214 59.2394 230.716 59.2394Z" fill="#F2F2F2"/>
<path d="M238.875 59.2394C240.377 59.2394 241.595 58.0217 241.595 56.5196C241.595 55.0175 240.377 53.7998 238.875 53.7998C237.373 53.7998 236.155 55.0175 236.155 56.5196C236.155 58.0217 237.373 59.2394 238.875 59.2394Z" fill="#F2F2F2"/>
<path d="M247.035 59.2394C248.537 59.2394 249.755 58.0217 249.755 56.5196C249.755 55.0175 248.537 53.7998 247.035 53.7998C245.533 53.7998 244.315 55.0175 244.315 56.5196C244.315 58.0217 245.533 59.2394 247.035 59.2394Z" fill="#F2F2F2"/>
<path d="M432.16 76.9175H235.476C233.974 76.9175 232.756 78.1352 232.756 79.6373V269.944C232.756 271.446 233.974 272.664 235.476 272.664H432.16C433.662 272.664 434.88 271.446 434.88 269.944V79.6373C434.88 78.1352 433.662 76.9175 432.16 76.9175Z" fill="white"/>
<path opacity="0.3" d="M383.996 103.582H274.525C273.399 103.582 272.485 104.495 272.485 105.622V106.336C272.485 107.462 273.399 108.376 274.525 108.376H383.996C385.123 108.376 386.036 107.462 386.036 106.336V105.622C386.036 104.495 385.123 103.582 383.996 103.582Z" fill="#DDE3E9"/>
<path opacity="0.3" d="M368.129 111.027H275.115C273.663 111.027 272.485 112.161 272.485 113.561V114.448C272.485 115.848 273.663 116.983 275.115 116.983H368.129C369.581 116.983 370.759 115.848 370.759 114.448V113.561C370.759 112.161 369.581 111.027 368.129 111.027Z" fill="#DDE3E9"/>
<path opacity="0.3" d="M346.664 124.427H274.525C273.399 124.427 272.485 125.341 272.485 126.467V127.181C272.485 128.308 273.399 129.221 274.525 129.221H346.664C347.791 129.221 348.704 128.308 348.704 127.181V126.467C348.704 125.341 347.791 124.427 346.664 124.427Z" fill="#DDE3E9"/>
<path opacity="0.3" d="M382.62 143.785H275.514C273.841 143.785 272.485 144.636 272.485 145.686V146.351C272.485 147.401 273.841 148.252 275.514 148.252H382.62C384.293 148.252 385.649 147.401 385.649 146.351V145.686C385.649 144.636 384.293 143.785 382.62 143.785Z" fill="#DDE3E9"/>
<path opacity="0.3" d="M382.62 136.34H275.514C273.841 136.34 272.485 137.191 272.485 138.241V138.906C272.485 139.956 273.841 140.807 275.514 140.807H382.62C384.293 140.807 385.649 139.956 385.649 138.906V138.241C385.649 137.191 384.293 136.34 382.62 136.34Z" fill="#DDE3E9"/>
<path opacity="0.3" d="M346.664 163.142H274.525C273.399 163.142 272.485 164.055 272.485 165.181V165.895C272.485 167.022 273.399 167.935 274.525 167.935H346.664C347.791 167.935 348.704 167.022 348.704 165.895V165.181C348.704 164.055 347.791 163.142 346.664 163.142Z" fill="#DDE3E9"/>
<path opacity="0.3" d="M346.664 182.498H274.525C273.399 182.498 272.485 183.411 272.485 184.538V185.252C272.485 186.378 273.399 187.292 274.525 187.292H346.664C347.791 187.292 348.704 186.378 348.704 185.252V184.538C348.704 183.411 347.791 182.498 346.664 182.498Z" fill="#DDE3E9"/>
<path opacity="0.3" d="M362.332 175.053H274.956C273.592 175.053 272.485 175.904 272.485 176.954V177.619C272.485 178.669 273.592 179.52 274.956 179.52H362.332C363.697 179.52 364.803 178.669 364.803 177.619V176.954C364.803 175.904 363.697 175.053 362.332 175.053Z" fill="#DDE3E9"/>
<path opacity="0.3" d="M346.664 155.696H274.525C273.399 155.696 272.485 156.61 272.485 157.736V158.45C272.485 159.577 273.399 160.49 274.525 160.49H346.664C347.791 160.49 348.704 159.577 348.704 158.45V157.736C348.704 156.61 347.791 155.696 346.664 155.696Z" fill="#DDE3E9"/>
<path opacity="0.3" d="M310.163 201.855H273.521C272.949 201.855 272.485 202.707 272.485 203.756V204.422C272.485 205.471 272.949 206.322 273.521 206.322H310.163C310.735 206.322 311.199 205.471 311.199 204.422V203.756C311.199 202.707 310.735 201.855 310.163 201.855Z" fill="#DDE3E9"/>
<path opacity="0.3" d="M375.374 221.212H275.315C273.752 221.212 272.485 222.063 272.485 223.113V223.778C272.485 224.828 273.752 225.679 275.315 225.679H375.374C376.937 225.679 378.204 224.828 378.204 223.778V223.113C378.204 222.063 376.937 221.212 375.374 221.212Z" fill="#DDE3E9"/>
<path opacity="0.3" d="M346.664 240.569H274.525C273.399 240.569 272.485 241.482 272.485 242.609V243.323C272.485 244.449 273.399 245.362 274.525 245.362H346.664C347.791 245.362 348.704 244.449 348.704 243.323V242.609C348.704 241.482 347.791 240.569 346.664 240.569Z" fill="#DDE3E9"/>
<path d="M364.702 204.693L382.876 216.383L369.472 225.769L364.702 204.693Z" fill="#F2994A"/>
<path d="M299.174 115.693L281 127.383L294.404 136.769L299.174 115.693Z" fill="#95E8F4"/>
<path d="M370.702 131.693L388.876 143.383L375.472 152.769L370.702 131.693Z" fill="#FFA09F"/>
<path fill-rule="evenodd" clip-rule="evenodd" d="M172.765 115.551C169.575 111.807 167.416 107.219 167.777 102.077C168.817 87.2633 189.438 90.5222 193.449 97.999C197.461 105.476 196.984 124.441 191.8 125.778C189.732 126.311 185.328 125.005 180.845 122.303L183.659 142.209H167.046L172.765 115.551Z" fill="#915B3C"/>
<path fill-rule="evenodd" clip-rule="evenodd" d="M181.676 103.714C182.312 112.572 183.994 117.001 186.722 117.001C190.815 117.001 194.288 114.403 196.084 114.403C197.393 114.403 197.101 116.041 196.233 117.256C195.517 118.258 192.03 119.224 192.03 120.778C192.03 122.331 194.785 121.129 194.785 122.051C194.785 123.575 195.269 126.441 192.624 126.441C189.947 126.441 182.271 125.465 180.955 121.492C180.106 118.927 179.557 113.614 179.308 105.55C179.146 105.531 178.981 105.521 178.813 105.521C176.519 105.521 174.66 107.381 174.66 109.674C174.66 110.839 175.139 111.891 175.911 112.646C174.95 114.002 173.873 115.419 172.639 116.881C168.002 114.1 164.562 105.956 169.095 98.1339C170.348 94.3017 173.184 92.2548 176.534 91.3043C179.247 90.1692 182.064 90.0412 184.442 90.7217C189.104 91.1215 193.266 92.5429 194.446 93.387C194.446 97.8001 193.591 99.1095 186.287 98.9941C184.492 99.9419 183.113 101.574 181.676 103.714Z" fill="#191847"/>
<path fill-rule="evenodd" clip-rule="evenodd" d="M165.712 199.492L199.688 285.485L222.476 358.185H231.474L196.637 199.492L165.712 199.492Z" fill="#784931"/>
<path fill-rule="evenodd" clip-rule="evenodd" d="M158.871 199.492C158.509 229.711 153.233 270.395 152.39 272.279C151.828 273.535 132.428 289.504 94.189 320.187L100.387 326.819C145.505 300.512 169.108 285.605 171.196 282.096C174.327 276.833 184.523 228.402 192.709 199.492H158.871Z" fill="#915B3C"/>
<path fill-rule="evenodd" clip-rule="evenodd" d="M93.3591 317.974C91.2777 318.71 89.8438 319.407 89.0576 320.067C88.1014 320.869 86.8397 322.2 85.2725 324.058C86.2033 325.167 94.5687 335.136 110.369 353.966C113.59 352.587 114.601 350.975 113.401 349.128C112.201 347.282 111.218 345.736 110.454 344.489L104.987 325.388C104.882 325.021 104.498 324.808 104.131 324.913C104.124 324.915 104.118 324.917 104.112 324.919L101.195 325.844C99.1706 324.901 97.752 323.944 96.9388 322.975C96.278 322.188 95.6836 320.834 95.1554 318.912L95.1554 318.912C94.9527 318.175 94.1907 317.742 93.4534 317.944C93.4217 317.953 93.3902 317.963 93.3591 317.974Z" fill="#E4E4E4"/>
<path fill-rule="evenodd" clip-rule="evenodd" d="M218.791 354.829C218.017 356.896 217.63 358.443 217.63 359.469C217.63 360.718 217.837 362.539 218.253 364.934C219.701 364.934 232.716 364.934 257.296 364.934C258.311 361.58 257.725 359.769 255.539 359.501C253.353 359.234 251.537 358.993 250.091 358.777L231.945 350.687C231.596 350.531 231.186 350.688 231.031 351.037C231.028 351.043 231.025 351.049 231.023 351.056L229.856 353.885C227.833 354.829 226.188 355.301 224.923 355.301C223.895 355.301 222.476 354.886 220.665 354.056L220.665 354.056C219.97 353.737 219.148 354.042 218.829 354.737C218.815 354.767 218.803 354.798 218.791 354.829Z" fill="#242727"/>
<path fill-rule="evenodd" clip-rule="evenodd" d="M188.556 350.697L231.339 346.054L199.632 199.492H161.313L188.556 350.697Z" fill="#212D2F"/>
<path fill-rule="evenodd" clip-rule="evenodd" d="M103.039 309.487L131.102 342.704C160.66 310.421 177.892 289.357 182.799 279.511C187.706 269.664 192.116 242.992 196.032 199.492H152.892C150.753 237.761 149.311 257.786 148.567 259.567C147.822 261.348 132.646 277.988 103.039 309.487Z" fill="#344A4D"/>
<path fill-rule="evenodd" clip-rule="evenodd" d="M197.983 156.463L222.01 143.303C226.005 138.559 229.942 134.874 233.82 132.249C235.005 131.754 237.077 131.454 235.139 134.894C233.201 138.334 231.318 142.039 232.305 143.098C233.292 144.158 235.754 142.678 236.932 144.438C237.717 145.612 233.511 147.466 224.314 150.001L206.856 165.986L197.983 156.463ZM235.614 167.566L246.168 161.768C247.648 156.133 249.419 153.298 251.478 153.263C253.06 152.527 250.305 159.647 253.304 159.029C256.304 158.412 263.624 152.967 264.885 154.073C266.751 155.708 265.087 160.73 263.127 163.228C259.463 167.897 256.429 169.493 248.931 171.584C245.01 172.677 240.772 174.868 236.215 178.157L235.614 167.566Z" fill="#915B3C"/>
<path d="M186.281 153.532C194.697 153.443 205.92 151.665 217.894 144.064L222.597 154.552C214.337 162.749 202.723 169.484 192.568 169.198C184.566 168.974 180.475 159.294 186.281 153.532Z" fill="#5BC5D4"/>
<path d="M197.614 170.35C206.548 172.578 221.53 169.95 242.561 162.467C247.777 173.259 250.189 180.952 249.795 185.548C231.754 194.972 216.291 199.174 203.552 199.451C203.957 207.01 203.037 214.203 199.946 220.775C193.592 234.286 156.385 221.773 143.875 224.236C136.041 198.793 151.188 188.454 151.201 172.174C151.214 154.346 165.529 126.905 167.635 126.905L186.842 126.905C187.902 140.52 193.236 155.526 197.614 170.35Z" fill="#95E8F4"/>
<path fill-rule="evenodd" clip-rule="evenodd" d="M500.976 114.23C504.166 110.486 506.325 105.898 505.964 100.756C504.925 85.9425 484.303 89.2014 480.292 96.6782C476.281 104.155 476.757 123.121 481.942 124.457C484.009 124.99 488.413 123.684 492.896 120.983L490.082 140.888H506.696L500.976 114.23Z" fill="#B28B67"/>
<path fill-rule="evenodd" clip-rule="evenodd" d="M478.724 100.035C478.889 99.0656 479.291 97.9894 479.615 97.0725C480.034 95.8905 480.667 94.8247 481.364 93.8203C482.675 91.9293 484.249 90.2217 485.987 88.8044C489.16 86.2156 493.2 84.7224 497.173 85.2073C499.179 85.4521 501.126 86.2172 502.783 87.4908C504.281 88.6414 505.721 90.3353 507.66 90.457C509.77 90.5893 511.704 88.7272 513.396 87.5771C515.303 86.2806 517.333 85.3358 519.563 84.9686C523.298 84.3536 526.807 85.6156 529.381 88.6801C532.12 91.9412 534.112 96.7236 532.313 101.045C531.978 101.848 531.548 102.525 530.931 103.086C530.364 103.601 529.5 104.148 529.27 104.971C529.026 105.845 529.755 106.972 530.037 107.761C530.442 108.891 530.774 110.077 530.656 111.306C530.462 113.323 529.194 115.248 527.856 116.574C526.494 117.923 524.817 118.697 523.027 119.053C521.831 119.291 520.609 119.423 519.394 119.333C518.791 119.289 518.258 119.122 517.674 118.988C517.106 118.859 516.788 119.01 516.306 119.321C514.066 120.77 511.657 121.33 509.071 121.114C506.888 120.933 504.372 120.404 502.591 118.908C500.613 117.247 500.652 114.956 501.118 112.509C500.625 112.753 499.261 112.904 500.076 111.93C500.399 111.545 501.009 111.388 501.423 111.161C501.906 110.897 502.395 110.555 502.77 110.124C504.283 108.384 502.755 104.843 500.854 104.26C498.029 103.393 497.397 107.387 495.38 108.421C494.221 109.015 493.008 108.203 492.139 107.374C490.976 106.263 490.183 104.791 489.498 103.294C488.934 102.061 488.41 100.81 487.835 99.5831C487.566 99.0101 486.637 97.3902 487.104 96.7423C485.081 96.3388 482.827 97.1796 481.085 98.2821C480.365 98.7379 479.816 99.2404 479.431 100.045C479.349 100.217 479.17 100.73 478.945 100.751C478.526 100.79 478.683 100.278 478.724 100.035Z" fill="#191847"/>
<path fill-rule="evenodd" clip-rule="evenodd" d="M508.03 198.171L474.054 284.164L451.266 356.864H442.268L477.105 198.171L508.03 198.171Z" fill="#3D2216"/>
<path fill-rule="evenodd" clip-rule="evenodd" d="M514.871 198.171C515.233 228.389 520.509 269.074 521.352 270.957C521.914 272.213 541.314 288.182 579.553 318.866L573.355 325.498C528.237 299.191 504.634 284.283 502.546 280.774C499.414 275.511 489.218 227.08 481.032 198.171H514.871Z" fill="#57331F"/>
<path fill-rule="evenodd" clip-rule="evenodd" d="M580.383 316.653C582.464 317.389 583.898 318.087 584.684 318.746C585.64 319.549 586.902 320.879 588.469 322.737C587.539 323.846 579.173 333.816 563.373 352.646C560.151 351.267 559.141 349.654 560.341 347.808C561.541 345.961 562.523 344.415 563.288 343.169L568.755 324.068C568.86 323.7 569.243 323.487 569.611 323.593C569.617 323.594 569.624 323.596 569.63 323.598L572.547 324.523C574.571 323.58 575.99 322.624 576.803 321.655C577.464 320.867 578.058 319.513 578.586 317.592L578.586 317.592C578.789 316.855 579.551 316.421 580.288 316.624C580.32 316.633 580.352 316.642 580.383 316.653Z" fill="#E4E4E4"/>
<path fill-rule="evenodd" clip-rule="evenodd" d="M454.951 353.508C455.726 355.575 456.113 357.122 456.113 358.148C456.113 359.397 455.905 361.218 455.489 363.613C454.041 363.613 441.027 363.613 416.446 363.613C415.432 360.259 416.017 358.448 418.203 358.181C420.389 357.913 422.205 357.672 423.651 357.456L441.798 349.366C442.147 349.211 442.556 349.368 442.712 349.717C442.714 349.723 442.717 349.729 442.719 349.735L443.886 352.564C445.909 353.508 447.554 353.981 448.819 353.981C449.847 353.981 451.266 353.565 453.078 352.735L453.078 352.735C453.773 352.416 454.595 352.722 454.913 353.417C454.927 353.447 454.94 353.477 454.951 353.508Z" fill="#242727"/>
<path fill-rule="evenodd" clip-rule="evenodd" d="M485.186 349.376L442.403 344.732L474.11 198.171H512.429L485.186 349.376Z" fill="#322B2B"/>
<path fill-rule="evenodd" clip-rule="evenodd" d="M570.704 308.166L542.641 341.382C513.083 309.1 495.85 288.035 490.944 278.189C486.037 268.343 481.626 241.67 477.711 198.171H520.851C522.989 236.44 524.431 256.464 525.175 258.245C525.92 260.026 541.096 276.666 570.704 308.166Z" fill="#5F4242"/>
<path fill-rule="evenodd" clip-rule="evenodd" d="M453.041 127.204L426.803 119.327C421.908 115.517 417.291 112.731 412.952 110.969C411.69 110.732 409.601 110.87 412.212 113.831C414.822 116.793 417.435 120.025 416.69 121.267C415.944 122.509 413.229 121.573 412.443 123.54C411.919 124.851 416.418 125.79 425.941 126.357L446.342 138.363L453.041 127.204ZM455.359 173.463L433.278 189.678C427.29 191.294 422.286 193.304 418.268 195.709C417.319 196.574 416.172 198.326 420.108 198.023C424.044 197.72 428.198 197.579 428.742 198.921C429.285 200.264 426.903 201.87 428.001 203.681C428.732 204.889 432.19 201.861 438.374 194.596L460.24 185.529L455.359 173.463Z" fill="#B28B67"/>
<path fill-rule="evenodd" clip-rule="evenodd" d="M489.657 129.796C477.632 152.217 460.244 169.405 435.037 187.271L444.581 198.033C472.727 187.574 487.581 181.263 494.876 160.08C496.707 154.763 497.986 137.815 499.084 128.898L489.657 129.796Z" fill="#EE8685"/>
<path fill-rule="evenodd" clip-rule="evenodd" d="M523.271 204.497H469.97C482.044 167.674 488.211 142.402 488.473 128.679C488.486 127.979 489.778 126.746 490.35 126.908C494.53 128.088 499.004 127.647 503.77 125.583C516.406 145.906 520.776 170.927 523.271 204.497Z" fill="#F59897"/>
<path fill-rule="evenodd" clip-rule="evenodd" d="M499.222 125.616C483.943 125.741 459.155 128.531 430.567 119.353L427.744 133.456C449.351 147.352 471.229 158.117 490.4 156.588C482.076 192.298 482.459 221.53 500.838 221.53C509.615 221.53 519.089 221.53 529.259 221.53C533.772 191.195 521.909 149.135 510.911 127.92C510.491 127.11 509.597 125.583 507.491 125.583C505.656 125.583 502.903 125.583 499.233 125.583C499.229 125.594 499.226 125.605 499.222 125.616Z" fill="#FFA09F"/>
<path fill-rule="evenodd" clip-rule="evenodd" d="M87.1256 191.98C84.067 188.39 81.997 183.991 82.3429 179.061C83.3395 164.856 103.113 167.981 106.959 175.15C110.806 182.319 110.349 200.505 105.377 201.786C103.395 202.297 99.1718 201.045 94.8736 198.455L97.5715 217.541H81.6414L87.1256 191.98Z" fill="#D4A181"/>
<path fill-rule="evenodd" clip-rule="evenodd" d="M97.8797 166.887C95.7802 166.543 90.1271 166.306 89.0846 166.306C88.4183 166.306 87.6964 166.458 87.3018 165.847C86.9786 165.346 87.097 164.498 87.0006 163.917C86.8886 163.242 86.7295 162.575 86.5687 161.91C86.1108 160.018 85.4186 158.218 84.4499 156.528C82.6324 153.357 79.9698 150.874 76.6083 149.429C72.8963 147.833 68.6958 147.467 64.703 147.791C60.4302 148.137 56.5624 149.548 52.5281 150.875C48.6837 152.14 44.6571 152.638 40.6363 152.02C36.5851 151.398 33.5241 149.202 30.107 147.118C26.6089 144.985 22.6112 143.59 18.4758 143.91C14.6156 144.21 11.0577 145.804 7.8657 147.933C4.87918 149.925 2.41491 152.322 1.02365 155.695C-0.47304 159.324 -0.471665 163.307 1.98955 166.514C5.55699 171.162 12.1798 172.364 17.6897 172.245C20.8767 172.176 24.0068 171.594 27.0157 170.536C31.0284 169.125 34.4961 166.732 38.2501 164.791C40.0119 163.881 41.833 163.133 43.7418 162.594C45.594 162.071 47.4184 161.831 49.0955 162.95C50.8696 164.133 52.4594 165.296 54.489 166.037C56.4361 166.748 58.4984 167.146 60.5728 167.13C64.6089 167.098 68.5875 165.841 72.5075 164.999C75.7041 164.312 79.1244 163.627 82.3833 164.288C83.7432 164.563 85.7295 165.132 86.2207 166.545C77.954 168.043 74.7073 178.267 77.0378 185.772C78.2956 189.823 85.8564 194.558 88.7962 192.429C90.6586 191.079 89.5279 189.308 88.7962 188.139C87.3949 185.9 86.9154 183.024 89.5084 181.465C91.7451 180.12 94.0968 183.313 94.1412 183.31C94.756 183.261 100.068 180.257 103.728 175.873C107.338 176.087 107.886 173.707 107.024 171.76C106.162 169.813 100.781 167.363 97.8797 166.887Z" fill="#191847"/>
<path d="M75.0046 388.126C103.231 388.126 126.114 366.284 126.114 339.34C126.114 312.396 103.231 290.554 75.0046 290.554C46.7779 290.554 23.8956 312.396 23.8956 339.34C23.8956 366.284 46.7779 388.126 75.0046 388.126Z" fill="#C5CFD6"/>
<path fill-rule="evenodd" clip-rule="evenodd" d="M171.586 380.599C163.082 361.776 156.931 345.386 154.463 336.738C150.236 321.931 147.02 308.902 146.207 304.037C144.269 292.434 161.116 291.758 163.343 297.525C166.714 306.252 172.598 334.928 179.668 378.241L171.586 380.599ZM72.9386 321.527C80.7415 318.443 108.067 308.791 121.246 306.06C125.033 305.275 128.704 304.546 132.155 303.888C142.412 301.929 147.727 320.434 137.847 321.856C113.244 325.397 78.3645 329.054 75.3796 329.464C71.1961 330.039 68.0348 323.465 72.9386 321.527Z" fill="#D4A181"/>
<path fill-rule="evenodd" clip-rule="evenodd" d="M138.451 298.795L96.2447 277.31V272.633H101.264C142.097 283.038 162.962 289.706 163.86 292.637C163.87 292.668 163.879 292.7 163.887 292.732C163.908 292.759 163.928 292.786 163.948 292.813C172.04 303.942 176.886 358.275 178.477 362.343L162.97 364.657C157.039 342.661 138.061 327.338 138.565 300.994C138.429 300.222 138.395 299.489 138.451 298.795Z" fill="#395F3D"/>
<path fill-rule="evenodd" clip-rule="evenodd" d="M99.7513 311.556C95.8895 310.783 92.3333 310.093 89.2902 309.559C69.6342 306.111 63.9024 295.59 67.2913 272.633L103.507 272.633C109.423 274.332 140.168 287.225 156.12 294.083C166.677 298.622 163.349 314.983 157.37 319.241C157.338 319.502 157.23 319.68 157.039 319.759C124.877 333.089 99.4339 326.095 90.9345 328.33L87.0032 315.928L99.7513 311.556Z" fill="#5B875F"/>
<path fill-rule="evenodd" clip-rule="evenodd" d="M75.6062 319.557C73.499 319.758 72.0032 320.075 71.1186 320.506C70.0428 321.031 68.5604 321.976 66.6713 323.341C67.28 324.589 72.7504 335.805 83.0825 356.989C86.3997 356.453 87.7141 355.188 87.0258 353.191C86.3375 351.195 85.7823 349.528 85.3603 348.192L84.7045 329.152C84.6919 328.786 84.3847 328.499 84.0183 328.512C84.0121 328.512 84.0058 328.512 83.9996 328.512L81.0707 328.697C79.4064 327.349 78.3083 326.131 77.7765 325.04C77.3444 324.154 77.1055 322.756 77.0597 320.847L77.0598 320.847C77.0422 320.114 76.4338 319.534 75.7008 319.551C75.6692 319.552 75.6377 319.554 75.6062 319.557Z" fill="#313131"/>
<path fill-rule="evenodd" clip-rule="evenodd" d="M167.717 377.109C166.974 379.091 166.603 380.574 166.603 381.558C166.603 382.755 166.802 384.502 167.201 386.798C168.589 386.798 181.068 386.798 204.638 386.798C205.611 383.582 205.049 381.846 202.953 381.589C200.857 381.333 199.116 381.101 197.729 380.894L180.329 373.137C179.994 372.988 179.602 373.138 179.453 373.473C179.45 373.479 179.448 373.485 179.445 373.491L178.327 376.204C176.386 377.109 174.81 377.562 173.596 377.562C172.611 377.562 171.25 377.164 169.513 376.367L169.513 376.367C168.846 376.062 168.058 376.355 167.753 377.021C167.74 377.05 167.728 377.079 167.717 377.109Z" fill="#313131"/>
<path fill-rule="evenodd" clip-rule="evenodd" d="M137.397 254.457L161.448 243.895C165.661 239.696 169.729 236.505 173.653 234.322C174.826 233.948 176.831 233.836 174.692 236.959C172.554 240.083 170.445 243.464 171.299 244.559C172.154 245.654 174.629 244.446 175.607 246.226C176.259 247.413 172.086 248.832 163.089 250.485L145.077 264.295L137.397 254.457ZM40.1626 257.366L53.7641 260.065C40.0855 285.556 32.7499 299.067 31.7573 300.597C29.5241 304.038 31.6078 310.345 32.3775 313.667C27.5487 314.791 29.453 307.523 23.3424 309.04C17.7648 310.425 13.0357 313.98 7.8349 309.186C7.19549 308.597 6.72741 306.754 8.90749 305.809C14.3389 303.455 22.3632 299.047 23.6644 297.336C25.4388 295.002 30.9382 281.679 40.1626 257.366Z" fill="#D4A181"/>
<path fill-rule="evenodd" clip-rule="evenodd" d="M90.7314 206.477L96.4709 205.493C108.972 217.62 114.074 246.754 122.405 250.611C130.282 254.257 141.448 250.728 154.72 245.964L158.785 255.046C146.726 268.093 121.035 279.115 110.621 272.823C93.9715 262.762 90.1279 226.829 90.7314 206.477Z" fill="#84C18E"/>
<path fill-rule="evenodd" clip-rule="evenodd" d="M65.7115 278.606C88.725 278.606 105.653 278.606 116.496 278.606C118.817 278.606 118.38 275.255 118.044 273.564C114.173 254.05 99.0593 233.014 99.0593 205.235L84.4106 202.938C72.2943 222.425 68.1042 246.417 65.7115 278.606Z" fill="#9BD9A5"/>
<path fill-rule="evenodd" clip-rule="evenodd" d="M60.6465 258.848C50.2937 277.523 41.5916 290.968 34.5402 299.183L23.8953 297.098C30.7523 254.572 50.6092 223.186 83.4659 202.938H83.6332L89.266 202.938C102.417 247.766 106.042 277.635 100.142 292.545H54.428C55.1512 281.635 57.4702 270.098 60.6465 258.848H60.6465Z" fill="#C9FACE"/>
<path fill-rule="evenodd" clip-rule="evenodd" d="M627.425 192.875C630.483 189.285 632.553 184.885 632.207 179.955C631.211 165.75 611.437 168.875 607.591 176.045C603.745 183.214 604.202 201.399 609.173 202.681C611.155 203.192 615.379 201.94 619.677 199.349L616.979 218.436H632.909L627.425 192.875Z" fill="#F5D7C6"/>
<path fill-rule="evenodd" clip-rule="evenodd" d="M628.649 196.073C630.648 187.178 636.344 181.114 635.474 177.139C634.894 174.488 633.349 172.84 630.837 172.194C629.538 166.939 625.349 164.704 618.269 165.489C607.65 166.666 601.168 171.076 603.968 180.78C606.54 180.78 609.647 179.85 613.942 181.444C615.305 181.95 616.279 183.518 616.866 186.15H618.807C620.691 183.027 622.548 181.879 624.379 182.707C626.21 183.535 626.626 185.545 625.628 188.739L626.584 196.073H628.649Z" fill="#191847"/>
<path fill-rule="evenodd" clip-rule="evenodd" d="M677.38 301.406H601.048C595.183 301.406 590.428 306.161 590.428 312.026V373.091C590.428 378.957 595.183 383.711 601.048 383.711H677.38C683.245 383.711 688 378.957 688 373.091V312.026C688 306.161 683.245 301.406 677.38 301.406ZM666.76 319.991C668.226 319.991 669.415 321.18 669.415 322.646V362.471C669.415 363.938 668.226 365.126 666.76 365.126H611.668C610.202 365.126 609.013 363.938 609.013 362.471V322.646C609.013 321.18 610.202 319.991 611.668 319.991H666.76Z" fill="#C5CFD6"/>
<path fill-rule="evenodd" clip-rule="evenodd" d="M524.611 380.392C537.698 364.412 546.552 352.565 551.175 344.851C559.09 331.643 565.569 319.89 567.613 315.4C572.488 304.695 556.39 299.682 552.746 304.675C547.232 312.233 535.455 336.016 517.415 376.023L524.611 380.392Z" fill="#E3C7B7"/>
<path fill-rule="evenodd" clip-rule="evenodd" d="M551.428 375.746L575.782 314.44C580.991 303.264 555.836 295.918 552.008 301.119C543.317 312.926 522.66 359.507 520.07 363.025L551.428 375.746Z" fill="#835217"/>
<path fill-rule="evenodd" clip-rule="evenodd" d="M616.292 363.451C611.548 356.531 594.292 333.249 584.893 323.616C582.192 320.848 579.557 318.191 577.064 315.715C569.655 308.355 554.901 320.725 562.297 327.428C580.714 344.122 607.585 366.657 609.83 368.667C612.977 371.483 619.274 367.801 616.292 363.451Z" fill="#F5D7C6"/>
<path fill-rule="evenodd" clip-rule="evenodd" d="M615.183 360.326C616.818 361.671 617.881 362.77 618.373 363.622C618.971 364.659 619.672 366.271 620.475 368.459C619.272 369.154 608.465 375.393 588.053 387.178C585.603 384.879 585.221 383.095 586.908 381.824C588.595 380.554 589.987 379.483 591.084 378.611L602.275 363.193C602.49 362.896 602.905 362.83 603.202 363.046C603.207 363.049 603.212 363.053 603.217 363.057L605.542 364.847C607.675 364.661 609.267 364.265 610.318 363.658C611.171 363.165 612.151 362.14 613.257 360.582L613.257 360.582C613.681 359.984 614.51 359.844 615.108 360.268C615.134 360.287 615.159 360.306 615.183 360.326Z" fill="#453726"/>
<path fill-rule="evenodd" clip-rule="evenodd" d="M530.24 378.004C530.983 379.986 531.354 381.47 531.354 382.454C531.354 383.651 531.155 385.397 530.756 387.694C529.368 387.694 516.889 387.694 493.319 387.694C492.346 384.477 492.908 382.741 495.004 382.485C497.1 382.228 498.841 381.997 500.228 381.79L517.628 374.033C517.963 373.884 518.355 374.034 518.504 374.369C518.507 374.374 518.509 374.38 518.512 374.386L519.63 377.099C521.571 378.005 523.147 378.457 524.36 378.457C525.346 378.457 526.707 378.059 528.444 377.263L528.444 377.263C529.111 376.957 529.898 377.25 530.204 377.917C530.217 377.945 530.229 377.974 530.24 378.004Z" fill="#453726"/>
<path fill-rule="evenodd" clip-rule="evenodd" d="M584.546 317.501C604.789 314.204 618.347 311.949 625.222 310.736C644.818 307.281 650.533 296.736 647.154 273.728H611.048C606.271 275.108 586.306 283.642 551.156 299.329C544.832 302.468 546.009 311.725 547.165 314.775C547.212 314.899 557.874 333.168 579.15 369.581L608.686 350.766L584.491 319.719C583.852 318.432 583.87 317.693 584.546 317.501Z" fill="#AD7431"/>
<path fill-rule="evenodd" clip-rule="evenodd" d="M581.944 265.04L560.772 280.588C555.029 282.137 550.232 284.065 546.379 286.371C545.469 287.2 544.369 288.88 548.143 288.59C551.918 288.299 555.901 288.164 556.422 289.451C556.943 290.739 554.658 292.278 555.711 294.015C556.413 295.173 559.729 292.27 565.658 285.304L586.625 276.61L581.944 265.04ZM663.237 265.577L649.366 265.631C657.93 293.279 662.554 307.949 663.237 309.64C664.772 313.447 661.522 319.244 660.132 322.359C664.659 324.385 664.177 316.883 669.887 319.54C675.1 321.964 679.065 326.358 685.087 322.642C685.827 322.186 686.638 320.466 684.678 319.121C679.794 315.773 672.757 309.912 671.806 307.983C670.509 305.352 667.653 291.217 663.237 265.577Z" fill="#F5D7C6"/>
<path fill-rule="evenodd" clip-rule="evenodd" d="M623.818 207.373L618.079 206.389C596.783 224.785 588.036 260.126 561.934 278.848L568.216 286.636C613.5 281.029 624.724 237.921 623.818 207.373Z" fill="#CF8631"/>
<path fill-rule="evenodd" clip-rule="evenodd" d="M648.839 279.502C625.825 279.502 608.897 279.502 598.054 279.502C595.734 279.502 596.171 276.151 596.506 274.46C600.378 254.946 615.491 233.91 615.491 206.131L630.14 203.834C642.256 223.321 646.446 247.313 648.839 279.502Z" fill="#DF9846"/>
<path fill-rule="evenodd" clip-rule="evenodd" d="M648.43 222.988C650.558 222.377 652.242 220.95 653.485 218.709C658.839 209.048 656.905 203.729 651.183 201.981C645.461 200.232 640.359 203.834 631.242 203.834C630.746 203.834 630.292 203.865 629.88 203.927L625.294 204.189C612.137 248.78 608.508 278.53 614.408 293.44H654.379C656.748 298.963 659.014 303.609 661.178 307.379H672.07C673.095 274.236 665.215 246.106 648.43 222.988Z" fill="#F4AE5C"/>
<path fill-rule="evenodd" clip-rule="evenodd" d="M645.676 270.54C644.418 281.058 642.375 288.691 639.546 293.441H654.38C651.617 286.999 648.716 279.365 645.676 270.54Z" fill="black" fill-opacity="0.1"/>
<rect x="385" y="153" width="20.8459" height="5.95597" fill="#FFA09F"/>
<path d="M304.066 216.693L285.893 228.383L299.297 237.769L304.066 216.693Z" fill="#84C18E"/>
<rect x="269" y="235.362" width="20.8459" height="5.95597" fill="#84C18E"/>
<rect x="261" y="136" width="20.8459" height="5.95597" fill="#95E8F4"/>
<rect x="378" y="225" width="20.8459" height="5.95597" fill="#F2994A"/>
<defs>
<filter id="filter0_d" x="166" y="0" width="319" height="337" filterUnits="userSpaceOnUse" color-interpolation-filters="sRGB">
<feFlood flood-opacity="0" result="BackgroundImageFix"/>
<feColorMatrix in="SourceAlpha" type="matrix" values="0 0 0 0 0 0 0 0 0 0 0 0 0 0 0 0 0 0 127 0"/>
<feOffset dy="4"/>
<feGaussianBlur stdDeviation="28"/>
<feColorMatrix type="matrix" values="0 0 0 0 0.301961 0 0 0 0 0.45098 0 0 0 0 0.909804 0 0 0 1 0"/>
<feBlend mode="normal" in2="BackgroundImageFix" result="effect1_dropShadow"/>
<feBlend mode="normal" in="SourceGraphic" in2="effect1_dropShadow" result="shape"/>
</filter>
<filter id="filter1_d" x="174" y="0" width="325" height="337" filterUnits="userSpaceOnUse" color-interpolation-filters="sRGB">
<feFlood flood-opacity="0" result="BackgroundImageFix"/>
<feColorMatrix in="SourceAlpha" type="matrix" values="0 0 0 0 0 0 0 0 0 0 0 0 0 0 0 0 0 0 127 0"/>
<feOffset dy="4"/>
<feGaussianBlur stdDeviation="28"/>
<feColorMatrix type="matrix" values="0 0 0 0 1 0 0 0 0 0.631373 0 0 0 0 0.631373 0 0 0 1 0"/>
<feBlend mode="normal" in2="BackgroundImageFix" result="effect1_dropShadow"/>
<feBlend mode="normal" in="SourceGraphic" in2="effect1_dropShadow" result="shape"/>
</filter>
</defs>
</svg>
