<svg width="102" height="26" viewBox="0 0 102 26" fill="none" xmlns="http://www.w3.org/2000/svg">
<path d="M21.3146 8.48223C17.654 8.48223 14.7938 11.261 14.7938 14.981C14.7938 18.701 17.5817 21.456 21.3146 21.456C25.0474 21.456 27.8838 18.6535 27.8838 14.9573C27.8838 11.2848 25.0959 8.48223 21.3146 8.48223ZM21.3393 18.7751C19.2547 18.7751 17.7272 17.1562 17.7272 14.9819C17.7272 12.7831 19.23 11.165 21.3146 11.165C23.4238 11.165 24.9504 12.8077 24.9504 14.9819C24.9504 17.1562 23.4238 18.7751 21.3393 18.7751ZM28.6832 11.3095H30.5015V21.2155H33.4102V8.72371H28.6832V11.3095ZM7.4736 11.1641C9.00112 11.1641 10.2131 12.1062 10.6732 13.5075H13.752C13.194 10.5119 10.7216 8.48223 7.49829 8.48223C3.83774 8.48223 0.977539 11.261 0.977539 14.9819C0.977539 18.7029 3.76549 21.457 7.49829 21.457C10.6494 21.457 13.1702 19.4273 13.7282 16.407H10.6732C10.2369 17.8083 9.02489 18.7751 7.49739 18.7751C5.38813 18.7751 3.90999 17.1562 3.90999 14.9819C3.91092 12.7831 5.36526 11.1641 7.4736 11.1641ZM83.9499 13.7736L81.8169 13.4599C80.7991 13.3154 80.0718 12.977 80.0718 12.1794C80.0718 11.3095 81.0176 10.875 82.3018 10.875C83.7078 10.875 84.605 11.4787 84.7988 12.4693H87.6107C87.2951 9.95669 85.3559 8.48313 82.3749 8.48313C79.2961 8.48313 77.2601 10.0537 77.2601 12.2763C77.2601 14.402 78.5935 15.635 81.2837 16.021L83.4167 16.3348C84.4596 16.4793 85.0412 16.8909 85.0412 17.6638C85.0412 18.6544 84.0233 19.0651 82.6174 19.0651C80.8958 19.0651 79.9264 18.3644 79.781 17.3016H76.9207C77.1878 19.7419 79.1023 21.457 82.5926 21.457C85.7685 21.457 87.8768 20.0072 87.8768 17.5183C87.8768 15.2957 86.3501 14.1359 83.9499 13.7736ZM31.9558 3.57771C30.8893 3.57771 30.0892 4.35061 30.0892 5.41347C30.0892 6.47633 30.8885 7.24923 31.9558 7.24923C33.0223 7.24923 33.8228 6.47633 33.8228 5.41347C33.8228 4.35061 33.0223 3.57771 31.9558 3.57771ZM74.6423 13.0007C74.6423 10.2951 72.9941 8.48313 69.5035 8.48313C66.207 8.48313 64.3648 10.1506 64.0009 12.7117H66.8857C67.0311 11.7211 67.8068 10.8997 69.4552 10.8997C70.9343 10.8997 71.6613 11.5519 71.6613 12.3495C71.6613 13.3886 70.3276 13.6538 68.6795 13.8231C66.4494 14.0645 63.6862 14.8374 63.6862 17.737C63.6862 19.9843 65.359 21.4332 68.0256 21.4332C70.1099 21.4332 71.4189 20.5633 72.0739 19.1858C72.1709 20.4179 73.092 21.2155 74.377 21.2155H76.0738V18.6306H74.6431V13.0007H74.6423ZM71.7819 16.1418C71.7819 17.8092 70.3276 19.0413 68.5577 19.0413C67.4667 19.0413 66.5456 18.5821 66.5456 17.6162C66.5456 16.3841 68.0244 16.0457 69.382 15.9012C70.691 15.7805 71.418 15.4905 71.7819 14.9344V16.1418ZM56.3413 8.48223C54.7168 8.48223 53.3595 9.15909 52.39 10.2942V3.45697H49.4813V21.2155H52.3414V19.5727C53.3109 20.7563 54.6932 21.457 56.3413 21.457C59.8316 21.457 62.4743 18.7029 62.4743 14.9819C62.4743 11.261 59.7833 8.48223 56.3413 8.48223ZM55.9051 18.7751C53.8205 18.7751 52.293 17.1562 52.293 14.9819C52.293 12.8077 53.8444 11.165 55.9287 11.165C58.0381 11.165 59.5161 12.784 59.5161 14.9819C59.5161 17.1562 57.9894 18.7751 55.9051 18.7751ZM42.5241 8.48223C40.6335 8.48223 39.3969 9.25514 38.6698 10.3427V8.72371H35.7848V21.2146H38.6934V14.4258C38.6934 12.5169 39.9054 11.1641 41.6992 11.1641C43.372 11.1641 44.4138 12.3477 44.4138 14.0636V21.2155H47.3225V13.8468C47.3236 10.7049 45.6999 8.48223 42.5241 8.48223ZM101.742 14.5713C101.742 10.9958 99.1245 8.48313 95.6094 8.48313C91.8767 8.48313 89.1373 11.2857 89.1373 14.9819C89.1373 18.8721 92.0705 21.457 95.6581 21.457C98.6883 21.457 101.064 19.6688 101.669 17.1324H98.6388C98.2026 18.2437 97.1361 18.8721 95.7056 18.8721C93.8387 18.8721 92.4327 17.7123 92.118 15.6826H101.742V14.5713H101.742ZM92.2882 13.6044C92.7494 11.8647 94.0581 11.0196 95.5611 11.0196C97.2092 11.0196 98.4698 11.9617 98.7606 13.6044H92.2882Z" fill="#151C48"/>
</svg>
