<svg width="133" height="26" viewBox="0 0 133 26" fill="none" xmlns="http://www.w3.org/2000/svg">
<path fill-rule="evenodd" clip-rule="evenodd" d="M7.68107 9.78057L15.3425 4.89028L23.004 9.73981L15.3425 14.6301L22.9632 19.5611L30.6246 14.6708L22.9632 9.78057L30.6246 4.89028L22.9632 0L15.3425 4.89028L7.68107 0L0.0196228 4.89028L7.68107 9.73981L0.0196228 14.6301L7.68107 19.5611L15.3425 14.6708L7.68107 9.78057ZM15.3018 16.2194L7.64031 21.1097L15.3018 26L22.9632 21.1097L15.3018 16.2194ZM42.8097 4.8903H36.6153V21.1097H42.9319C46.9664 21.1097 50.0228 18.7461 50.0228 13.4891V12.3887C50.0228 7.17243 46.7626 4.8903 42.8097 4.8903ZM40.0793 18.1348V7.82447H42.6059C44.888 7.82447 46.4774 9.29156 46.4774 12.5517V13.4075C46.4774 16.6677 44.9695 18.1348 42.7282 18.1348H40.0793ZM54.6278 7.98748H51.8974V21.1505H55.3206V15.1191C55.3206 12.348 56.0134 11.3699 58.8253 11.3699H60.2517V7.86522H59.3959C56.9507 7.86522 55.6059 8.96554 55.0761 11.0439L54.6278 7.98748ZM60.9445 14.4671V14.8339C60.9445 19.1536 63.3488 21.4358 67.5871 21.4765C71.5808 21.4765 74.2297 19.1536 74.2297 14.8339V14.4671C74.2297 10.0659 71.4993 7.66146 67.5871 7.66146C63.7564 7.66146 60.9445 10.0659 60.9445 14.4671ZM70.725 14.4671V14.7931C70.725 17.1568 69.5024 18.4608 67.5463 18.5016C65.5902 18.5016 64.3677 17.1568 64.3677 14.7931V14.4671C64.3677 11.8997 65.631 10.5549 67.5463 10.5549C69.5024 10.5549 70.725 12.022 70.725 14.4671ZM78.8755 7.98748H76.0228L75.9821 25.674H79.3238V19.0314C80.0166 20.5392 81.4429 21.4765 83.5213 21.4765C86.6184 21.4765 89.0636 19.1944 89.0636 14.8746V14.5079C89.0636 10.0659 86.863 7.66146 83.5213 7.66146C81.3614 7.66146 79.8943 8.80253 79.2015 10.4734L78.8755 7.98748ZM85.5996 14.5079V14.7931C85.5996 17.2383 84.3771 18.5016 82.4209 18.5423C80.5056 18.5423 79.283 17.0753 79.283 14.7524V14.5079C79.283 12.0627 80.5463 10.5956 82.4617 10.5956C84.2548 10.5956 85.5996 11.8997 85.5996 14.5079ZM93.8316 21.1097L94.1169 18.7054C94.8097 20.417 96.236 21.4358 98.4366 21.4765C101.778 21.4765 103.979 18.9906 103.979 14.6301V14.2226C103.979 9.86209 101.656 7.70222 98.5181 7.66146C96.4398 7.66146 94.9727 8.59877 94.2391 10.3104V3.58623H90.8974V21.1097H93.8316ZM97.3363 10.5549C99.1702 10.5549 100.474 11.8997 100.474 14.3041V14.6301C100.474 17.2383 99.2924 18.5016 97.2956 18.5016C95.421 18.5016 94.1576 17.0753 94.1576 14.6301V14.3449C94.1576 12.0627 95.4617 10.5549 97.3363 10.5549ZM105.446 14.4671V14.8339C105.446 19.1536 107.85 21.4358 112.089 21.4765C116.042 21.4765 118.731 19.1536 118.731 14.8339V14.4671C118.731 10.0659 116.001 7.66146 112.089 7.66146C108.258 7.66146 105.446 10.0659 105.446 14.4671ZM115.267 14.4671V14.7931C115.267 17.1568 114.045 18.4608 112.089 18.5016C110.133 18.5016 108.91 17.1568 108.91 14.7931V14.4671C108.91 11.8997 110.173 10.5549 112.089 10.5549C114.045 10.5549 115.267 12.022 115.267 14.4671ZM118.609 7.98748L123.214 14.3041L118.202 21.1097H122.236L125.17 16.7492L128.186 21.1097H132.057L127.126 14.2633L131.813 7.98748H127.901L125.211 11.9405L122.562 7.98748H118.609Z" fill="#151C48"/>
</svg>
