<svg width="82" height="26" viewBox="0 0 82 26" fill="none" xmlns="http://www.w3.org/2000/svg">
<path fill-rule="evenodd" clip-rule="evenodd" d="M63.153 12.6921C63.153 7.58996 67.3634 3.45697 72.5476 3.45697C77.7318 3.45697 81.9421 7.58996 81.9421 12.6921C81.9421 17.7942 77.7318 21.9272 72.5476 21.9272C67.3634 21.9272 63.153 17.7942 63.153 12.6921ZM66.3896 12.7206C66.3896 16.0555 69.1678 18.7633 72.5476 18.7633C75.9273 18.7633 78.7056 16.0555 78.7056 12.7206C78.7056 9.38567 75.9273 6.67785 72.5476 6.67785C69.1392 6.67785 66.3896 9.38567 66.3896 12.7206ZM22.3384 4.19812H30.6732C35.886 4.34064 39.4662 7.96056 39.4662 12.6636C39.4662 17.4237 35.8287 21.1291 30.53 21.1861H22.3384V4.19812ZM25.4031 18.2788H30.53C33.9097 18.2218 36.1152 15.913 36.1438 12.7206C36.1438 9.55675 33.9384 7.21948 30.5873 7.13397H25.4031V18.2788ZM17.8129 4.19892V7.19177H10.8242V18.2226H17.8129V21.2154H0.74231V18.2226H7.75956V7.19177H0.74231V4.19892H17.8129ZM60.4319 7.19097V4.19812H43.1895V21.2146H60.4319V18.2218H46.2829V14.2028H57.31V11.2099H46.2829V7.19097H60.4319Z" fill="#151C48"/>
</svg>
