<svg width="129" height="26" viewBox="0 0 129 26" fill="none" xmlns="http://www.w3.org/2000/svg">
<path fill-rule="evenodd" clip-rule="evenodd" d="M21.6272 6.83258C22.564 6.93904 23.1815 7.85457 23.4369 8.7701C23.6712 9.70692 23.586 10.8567 22.8408 11.3676C21.4143 12.4109 17.5818 11.1547 17.3902 10.4095C17.1986 9.66433 19.9026 6.64096 21.6272 6.83258ZM20.8394 2.91497C20.6691 1.59491 19.3916 0.700668 18.1141 0.360006C16.8366 0.0406353 15.2398 0.189675 14.4946 1.21166C13.068 3.23434 14.8565 8.57848 15.8572 8.85526C16.8579 9.13205 21.1162 5.3209 20.8394 2.91497ZM17.9864 15.9453C18.689 14.4762 17.4754 11.9851 15.9424 10.4521C14.4307 8.91915 11.9396 7.70554 10.4705 8.40816C6.51032 10.3031 -0.45196 24.4619 0.761649 25.6542C1.95397 26.8465 16.0914 19.9055 17.9864 15.9453ZM56.1618 14.6252L54.9057 14.4336C53.6921 14.2633 53.0107 13.8587 53.0107 13.1561C53.0107 12.3471 53.9263 11.8361 55.2676 11.8361C56.1406 11.8786 56.9922 12.1341 57.7374 12.56L57.8865 12.6451C58.4613 12.9219 59.1852 12.709 59.4833 12.1341L59.5898 11.9425C59.9304 11.3464 59.7175 10.6012 59.1213 10.2605C59.1107 10.2605 59.1054 10.2552 59.1001 10.2499C59.0947 10.2445 59.0894 10.2392 59.0788 10.2392C57.9077 9.60047 56.609 9.23852 55.2889 9.21723C52.0739 9.21723 50.0086 10.7502 50.0086 13.2626C50.0086 15.3066 51.4777 16.6053 54.2669 16.9886L55.5444 17.1589C56.8858 17.3505 57.5458 17.7551 57.5458 18.3725C57.5458 18.99 57.2264 19.7352 55.1399 19.7352C53.9901 19.7565 52.8617 19.4371 51.8823 18.8409C51.6907 18.7345 51.4777 18.6706 51.2648 18.6706C50.839 18.6706 50.4558 18.9048 50.2428 19.2455L50.179 19.3519C50.0086 19.6287 49.9448 19.9907 50.0299 20.31C50.1151 20.6294 50.328 20.9062 50.6048 21.0552C52.01 21.8217 53.5643 22.2688 55.1824 22.3114C58.5465 22.3114 60.6117 20.8423 60.6117 18.2661C60.5266 16.2221 59.0575 15.0511 56.1618 14.6252ZM94.2095 18.7132C94.5715 18.7132 94.9334 18.8623 95.1677 19.139L95.2315 19.2242C95.2528 19.2455 95.2741 19.2721 95.2954 19.2987C95.3167 19.3253 95.338 19.352 95.3593 19.3732C95.7851 20.012 95.6148 20.8849 94.976 21.3108C93.9115 21.9921 92.6553 22.354 91.3991 22.3327C87.524 22.3327 84.82 19.6287 84.82 15.7537C84.82 11.8787 87.524 9.17468 91.3991 9.17468C92.6766 9.15339 93.9115 9.51534 94.976 10.1967C95.0399 10.2392 95.1038 10.2818 95.1677 10.3457C95.7212 10.878 95.7425 11.7509 95.2102 12.3045L95.1038 12.4323C94.6779 12.8794 93.9966 12.9433 93.4643 12.6239C92.8256 12.1981 92.0804 11.9851 91.3352 11.9851C89.3338 11.9851 87.8647 13.6033 87.8647 15.7963C87.8647 17.9893 89.2912 19.5862 91.3352 19.5862C92.1017 19.5649 92.8682 19.352 93.5069 18.9261C93.7198 18.7771 93.954 18.7132 94.2095 18.7132ZM32.5497 4.7888C31.5703 4.7888 30.7612 5.59787 30.7825 6.59857V6.61986C30.7399 7.59926 31.5064 8.40834 32.4858 8.42963H32.571C33.5717 8.47221 34.4234 7.72701 34.4659 6.72632C34.5085 5.72562 33.7633 4.87397 32.7626 4.83139H32.571V4.7888H32.5497ZM32.0386 9.32356H33.1032C33.6142 9.32356 34.04 9.74939 34.04 10.2604V21.0977C34.04 21.6087 33.6142 22.0345 33.1032 22.0345H32.0386C31.5276 22.0345 31.1018 21.6087 31.1018 21.0977V10.2604C31.1018 9.74939 31.5276 9.32356 32.0386 9.32356ZM67.872 19.5221C66.4668 19.5221 65.317 18.3724 65.317 16.9672V12.0702H67.8933C68.4043 12.0702 68.8301 11.6443 68.8301 11.1333V10.2817C68.8301 9.7707 68.4043 9.34487 67.8933 9.34487H65.2958V6.53441C65.2958 6.02342 64.8699 5.59759 64.3589 5.59759H63.2305C62.7195 5.59759 62.2937 6.02342 62.2937 6.53441V16.7968C62.2298 19.7989 64.5931 22.29 67.6165 22.3752H67.6591C68.2978 22.3752 68.8301 21.8429 68.8301 21.2042V20.459C68.8301 19.948 68.4043 19.5221 67.872 19.5221ZM36.3609 14.7742C36.4461 11.6231 39.0649 9.13199 42.216 9.21716C45.3459 9.15328 47.9647 11.6444 48.0286 14.7955V21.0977C48.0286 21.6087 47.6027 22.0346 47.0918 22.0346H46.0272C45.5162 22.0346 45.0904 21.6087 45.0904 21.0977V15.2639C45.0904 13.3264 43.9193 12.0276 42.1947 12.0276C40.4701 12.0276 39.2991 13.3051 39.2991 15.2639V21.0977C39.2991 21.6087 38.8733 22.0346 38.3623 22.0346H37.2977C36.7867 22.0346 36.3609 21.6087 36.3609 21.0977V14.8168V14.7742ZM119.568 9.36624C118.929 9.28108 118.269 9.2172 117.609 9.2385H117.46C114.351 9.2385 111.839 11.7509 111.839 14.8594V21.0978C111.839 21.6088 112.265 22.0346 112.776 22.0346H113.84C114.351 22.0346 114.777 21.6088 114.777 21.0978V14.9659C114.692 13.4329 115.884 12.1128 117.417 12.0277H117.609C117.907 12.0277 118.205 12.0703 118.503 12.1341H118.758C119.355 12.1341 119.866 11.7296 120.015 11.1334C120.054 10.9855 120.084 10.8558 120.112 10.7381L120.112 10.7379L120.112 10.7377C120.144 10.6014 120.172 10.4811 120.206 10.3669C120.249 10.1327 120.228 9.89853 120.1 9.70691C119.972 9.53658 119.78 9.40883 119.568 9.36624ZM128.361 11.1333C128.361 11.6443 127.935 12.0702 127.424 12.0702H124.869V16.9672C124.869 18.3724 126.019 19.5221 127.424 19.5221C127.956 19.5221 128.382 19.948 128.382 20.459V21.2042C128.382 21.8429 127.85 22.3752 127.211 22.3752H127.169C124.145 22.29 121.782 19.7989 121.846 16.7968V6.53441C121.846 6.02342 122.272 5.59759 122.783 5.59759H123.911C124.422 5.59759 124.848 6.02342 124.848 6.53441V9.34487H127.424C127.935 9.34487 128.361 9.7707 128.361 10.2817V11.1333ZM106.963 10.2393C105.898 9.558 104.664 9.19605 103.386 9.21734H103.28C102.023 9.19605 100.767 9.558 99.7026 10.2393C97.829 11.4529 96.7431 13.5608 96.8283 15.7964C96.8283 18.3513 98.0206 20.4166 99.9581 21.5238C100.916 22.0773 101.981 22.3754 103.088 22.3754C104.536 22.418 105.92 21.8005 106.878 20.6934V21.1405C106.878 21.6515 107.304 22.0773 107.815 22.0773H108.901C109.411 22.0773 109.837 21.6515 109.837 21.1405V15.8177C109.944 13.5608 108.837 11.4529 106.963 10.2393ZM104.514 19.3946C104.174 19.5011 103.833 19.5649 103.493 19.5862H103.216C102.875 19.5649 102.534 19.5011 102.194 19.3946C100.746 18.8197 99.8091 17.3932 99.8942 15.8177C99.8942 13.7737 101.172 12.2407 103.003 12.0491H103.131H103.599H103.727C105.536 12.2407 106.835 13.7737 106.835 15.8177C106.899 17.3719 105.984 18.8197 104.514 19.3946ZM76.6442 9.21734C77.9217 9.19605 79.1566 9.558 80.2212 10.2393C82.0948 11.4529 83.1807 13.5608 83.0742 15.8177V21.1405C83.0742 21.6515 82.6484 22.0773 82.1374 22.0773H81.0728C80.5618 22.0773 80.136 21.6515 80.136 21.1405V20.6934C79.1992 21.8005 77.8152 22.418 76.3674 22.3754C75.2603 22.3754 74.1957 22.0773 73.2376 21.5238C71.3001 20.4166 70.1078 18.3513 70.1078 15.7964C70.0013 13.5821 71.0872 11.4742 72.9395 10.2393C74.0041 9.558 75.2603 9.19605 76.5165 9.21734H76.6442ZM76.7507 19.5862C77.0913 19.5649 77.432 19.5011 77.7727 19.3946C79.2205 18.8197 80.1573 17.3719 80.1147 15.8177C80.1147 13.7737 78.8159 12.2407 77.0062 12.0491H76.9849H76.8571H76.3887H76.261C74.4299 12.2407 73.1524 13.7737 73.1524 15.8177C73.0673 17.3932 73.9828 18.8197 75.4519 19.3946C75.7926 19.5011 76.1332 19.5649 76.4739 19.5862H76.7507Z" fill="#172946"/>
</svg>
