<svg width="48" height="34" viewBox="0 0 48 34" fill="none" xmlns="http://www.w3.org/2000/svg">
<path fill-rule="evenodd" clip-rule="evenodd" d="M0.415771 1.07589H7.49604V20.0777C7.49604 23.0848 8.87158 24.8761 9.9593 25.6439C8.80775 26.6676 5.28881 27.5633 2.66563 25.3879C1.11909 24.1056 0.415771 21.9971 0.415771 20.0136V1.07589ZM44.6646 16.8602V14.8633H46.824V7.85773H44.4526C43.5423 3.65173 39.7977 0.5 35.3194 0.5C30.1604 0.5 25.9785 4.68221 25.9785 9.84096V26.2012C27.4482 26.4078 29.1992 26.1755 30.689 24.9401C32.2353 23.6576 32.9386 21.5493 32.9386 19.5658V18.9631H36.4747V11.9575H32.9386V9.84096H32.9471C32.9471 8.5309 34.0091 7.46886 35.3194 7.46886C36.6295 7.46886 37.6958 8.5309 37.6958 9.84096V16.8602C37.6958 22.019 41.8822 26.2012 47.041 26.2012V19.2323C45.7309 19.2323 44.6646 18.1703 44.6646 16.8602ZM17.8491 7.85773V18.1392C17.8491 18.7229 17.3648 19.1961 16.7673 19.1961C16.1697 19.1961 15.6855 18.7229 15.6855 18.1392V7.85773H8.67961V19.9498C8.67961 22.125 9.41732 24.8761 12.7744 25.7718C16.1351 26.6685 18.0846 24.8122 18.0846 24.8122C17.907 26.0351 16.7553 26.9309 14.8999 27.1228C13.4961 27.2679 11.7009 26.803 10.8053 26.4191V32.8255C13.0872 33.4984 15.5008 33.7158 17.8628 33.2574C22.1493 32.4258 24.8547 28.843 24.8547 24.0764V7.85773H17.8491Z" fill="#172946"/>
</svg>
