<svg width="79" height="26" viewBox="0 0 79 26" fill="none" xmlns="http://www.w3.org/2000/svg">
<path d="M74.7933 12.9499L78.9775 24.0287C77.7442 23.8523 76.5115 23.6317 75.2557 23.4335L72.8987 17.3112L70.4763 22.9275C69.2873 22.7293 68.1194 22.6626 66.9303 22.5087L71.1812 12.8178L67.3266 2.88519H70.8952L73.0533 8.43481L75.366 2.88519H78.9775L74.7933 12.9499ZM64.5079 2.88519H61.2704V22.0905C62.3273 22.1566 63.4285 22.2002 64.5079 22.3323V2.88519ZM58.4728 21.8699C55.5219 21.6717 52.5704 21.496 49.5535 21.4293V2.88519H52.8564V18.3021C54.751 18.3463 56.6449 18.5002 58.4728 18.5881V21.8699ZM46.0292 10.3954V13.6991H41.5147V21.2093H38.2547V2.88519H47.505V6.18881H41.5147V10.3954H46.0292ZM32.7044 6.18881V21.3857C31.6032 21.3857 30.4802 21.3857 29.4008 21.4293V6.18881H25.9869V2.88519H36.1402V6.18881H32.7044ZM22.4191 13.8748C20.9658 13.8748 19.2476 13.8748 18.0142 13.9415V18.853C19.9524 18.7202 21.8906 18.5663 23.8506 18.5002V21.6717L14.7106 22.399V2.88519H23.8506V6.18881H18.0142V10.6372C19.2918 10.6372 21.2518 10.5712 22.4191 10.5712V13.8748ZM4.11674 12.0251V23.5656C2.92768 23.6984 1.87007 23.8523 0.74707 24.0287V2.88519H3.89676L8.19126 14.8888V2.88519H11.4949V22.6626C10.3276 22.8614 9.13855 22.9275 7.88277 23.1032L4.11674 12.0251Z" fill="#151C48"/>
</svg>
