<svg width="106" height="32" viewBox="0 0 106 32" fill="none" xmlns="http://www.w3.org/2000/svg">
<path fill-rule="evenodd" clip-rule="evenodd" d="M25.6468 14.2188C20.5871 11.214 12.2412 10.9377 7.41109 12.4036C6.63547 12.6391 5.81523 12.201 5.58019 11.4254C5.34514 10.6494 5.78262 9.82973 6.5588 9.59394C12.1034 7.91092 21.3205 8.23594 27.1454 11.6936C27.8432 12.1079 28.0721 13.0089 27.6584 13.7054C27.2446 14.4031 26.3428 14.633 25.6468 14.2188ZM25.4811 18.6693C25.1263 19.2453 24.3732 19.4259 23.7979 19.0723C19.5796 16.4793 13.1473 15.7282 8.15672 17.2431C7.50949 17.4386 6.8259 17.0737 6.62947 16.4278C6.43434 15.7805 6.79948 15.0983 7.44539 14.9015C13.1465 13.1716 20.2336 14.0094 25.0785 16.9869C25.6538 17.3412 25.8348 18.0947 25.4811 18.6693ZM23.5604 22.9435C23.2785 23.4059 22.6761 23.551 22.2154 23.2691C18.5292 21.0163 13.8897 20.5074 8.42588 21.7555C7.89937 21.8762 7.37473 21.5462 7.25458 21.0198C7.13387 20.4933 7.46263 19.9687 7.99027 19.8485C13.9696 18.4815 19.0986 19.0699 23.236 21.5981C23.6973 21.8798 23.8425 22.4824 23.5604 22.9435ZM16.3619 0.303345C7.69281 0.303345 0.664978 7.3308 0.664978 15.9998C0.664978 24.6695 7.69281 31.6967 16.3619 31.6967C25.0311 31.6967 32.0585 24.6695 32.0585 15.9998C32.0585 7.3308 25.0311 0.303345 16.3619 0.303345ZM43.3698 14.7934C40.6597 14.1471 40.177 13.6935 40.177 12.7406C40.177 11.8399 41.025 11.2341 42.2857 11.2341C43.5078 11.2341 44.7194 11.6943 45.99 12.6416C46.0285 12.6703 46.0766 12.6817 46.1241 12.6742C46.1715 12.6671 46.2133 12.6412 46.2412 12.6019L47.5645 10.7365C47.6189 10.6596 47.6041 10.5539 47.5308 10.4951C46.0187 9.28177 44.316 8.6919 42.3258 8.6919C39.3995 8.6919 37.3555 10.448 37.3555 12.9606C37.3555 15.6551 39.1187 16.6091 42.1657 17.3456C44.7591 17.9429 45.1968 18.4432 45.1968 19.3381C45.1968 20.3294 44.3117 20.9457 42.8874 20.9457C41.3056 20.9457 40.0151 20.4128 38.5716 19.1628C38.5358 19.1321 38.4867 19.1178 38.4413 19.1204C38.3937 19.1244 38.35 19.1465 38.3197 19.183L36.8359 20.9489C36.7737 21.0222 36.7815 21.1317 36.8533 21.195C38.533 22.6943 40.5984 23.4865 42.8274 23.4865C45.9807 23.4865 48.0183 21.7633 48.0183 19.0966C48.0183 16.8429 46.6718 15.5964 43.3698 14.7934ZM54.5908 21.0451C56.2693 21.0451 57.4415 19.7171 57.4415 17.814C57.4415 15.9415 56.2423 14.583 54.5908 14.583C52.9314 14.583 51.6797 15.9715 51.6797 17.814C51.6797 19.6567 52.9314 21.0451 54.5908 21.0451ZM51.7402 13.762C52.6646 12.6589 53.7857 12.1206 55.1525 12.1206C57.6921 12.1206 60.263 14.0761 60.263 17.814C60.263 21.5512 57.6921 23.5062 55.1525 23.5062C53.7861 23.5062 52.6648 22.9993 51.7402 21.9617V26.3163C51.7402 26.4143 51.6607 26.4941 51.5627 26.4941H49.1361C49.0381 26.4941 48.9588 26.4143 48.9588 26.3163V12.5204C48.9588 12.4224 49.0381 12.3425 49.1361 12.3425H51.5627C51.6607 12.3425 51.7402 12.4224 51.7402 12.5204V13.762ZM66.853 21.065C65.1133 21.065 63.8018 19.6672 63.8018 17.814C63.8018 15.9531 65.068 14.6025 66.8129 14.6025C68.5637 14.6025 69.884 16.0002 69.884 17.8547C69.884 19.7154 68.6093 21.065 66.853 21.065ZM66.853 12.1206C63.5824 12.1206 61.0201 14.639 61.0201 17.8547C61.0201 21.0354 63.5647 23.5274 66.8129 23.5274C70.0951 23.5274 72.6653 21.0174 72.6653 17.814C72.6653 14.6214 70.1127 12.1206 66.853 12.1206ZM76.9791 12.3425H79.6495C79.7475 12.3425 79.8264 12.4224 79.8264 12.5204V14.606C79.8264 14.7039 79.7475 14.7837 79.6495 14.7837H76.9791V19.8002C76.9791 20.5925 77.3266 20.9458 78.105 20.9458C78.6102 20.9458 79.0621 20.8373 79.5295 20.602C79.5837 20.5752 79.6495 20.5769 79.7024 20.6101C79.7547 20.6423 79.7867 20.7001 79.7867 20.7613V22.7474C79.7867 22.8108 79.7522 22.8704 79.6969 22.9013C79.0163 23.2873 78.2941 23.467 77.4237 23.467C75.2829 23.467 74.1975 22.3613 74.1975 20.1805V14.7837H73.0307C72.9328 14.7837 72.8539 14.7039 72.8539 14.606V12.5204C72.8539 12.4224 72.9328 12.3425 73.0307 12.3425H74.1975V9.6123C74.1975 9.51427 74.2773 9.43461 74.3755 9.43461H76.8019C76.9 9.43461 76.9791 9.51427 76.9791 9.6123V12.3425ZM88.9534 12.3531V12.0178C88.9534 11.0313 89.3317 10.5914 90.18 10.5914C90.6859 10.5914 91.0923 10.6918 91.5474 10.8437C91.6034 10.8613 91.6619 10.8525 91.7075 10.8189C91.7543 10.7854 91.7808 10.7316 91.7808 10.6746V8.62963C91.7808 8.55166 91.7305 8.4823 91.6554 8.45925C91.1746 8.31642 90.5594 8.16947 89.6383 8.16947C87.3968 8.16947 86.2121 9.43168 86.2121 11.8183V12.3319H85.0463C84.9484 12.3319 84.8682 12.4118 84.8682 12.5096V14.6059C84.8682 14.7038 84.9484 14.7836 85.0463 14.7836H86.2121V23.1078C86.2121 23.2058 86.2912 23.2855 86.3891 23.2855H88.8157C88.9137 23.2855 88.9935 23.2058 88.9935 23.1078V14.7836H91.2593L94.7301 23.1055C94.3361 23.9799 93.9487 24.1539 93.4197 24.1539C92.9922 24.1539 92.5419 24.0262 92.0816 23.7743C92.0383 23.7505 91.9871 23.7466 91.9403 23.761C91.894 23.7775 91.855 23.8118 91.8353 23.857L91.0128 25.6614C90.9736 25.7467 91.007 25.8468 91.0891 25.8911C91.9478 26.3561 92.723 26.5546 93.6808 26.5546C95.4727 26.5546 96.4632 25.7197 97.3364 23.4742L101.547 12.5953C101.568 12.5405 101.561 12.4789 101.528 12.4301C101.494 12.3822 101.441 12.3531 101.382 12.3531H98.8555C98.7799 12.3531 98.7121 12.4011 98.6873 12.4723L96.0993 19.8643L93.2647 12.4674C93.2388 12.3985 93.1727 12.3531 93.099 12.3531H88.9534ZM81.1329 12.3425H83.5597C83.6575 12.3425 83.7374 12.4223 83.7374 12.5203V23.1078C83.7374 23.2059 83.6575 23.2855 83.5597 23.2855H81.1329C81.0349 23.2855 80.9552 23.2059 80.9552 23.1078V12.5203C80.9552 12.4223 81.0349 12.3425 81.1329 12.3425ZM82.3586 7.52172C81.3974 7.52172 80.6171 8.30015 80.6171 9.26152C80.6171 10.2233 81.3974 11.0025 82.3586 11.0025C83.3196 11.0025 84.099 10.2233 84.099 9.26152C84.099 8.30015 83.3196 7.52172 82.3586 7.52172ZM103.273 13.3958H103.718C103.94 13.3958 104.072 13.4945 104.072 13.679C104.072 13.8542 103.94 13.9628 103.718 13.9628H103.273V13.3958ZM104.489 14.8808L104.006 14.2046C104.252 14.1335 104.422 13.954 104.422 13.6601C104.422 13.3013 104.148 13.0884 103.731 13.0884H102.932V14.8808H103.273V14.2606H103.647L104.082 14.8808H104.489ZM102.09 14.0387C102.09 13.1871 102.752 12.4918 103.627 12.4918C104.498 12.4918 105.155 13.1778 105.155 14.0289C105.155 14.8808 104.493 15.5759 103.618 15.5759C102.748 15.5759 102.09 14.8897 102.09 14.0387ZM101.911 14.0387C101.911 14.9753 102.658 15.7466 103.618 15.7466C104.579 15.7466 105.335 14.9656 105.335 14.0289C105.335 13.0931 104.588 12.3219 103.627 12.3219C102.668 12.3219 101.911 13.1019 101.911 14.0387Z" fill="#172946"/>
</svg>
