<svg width="63" height="26" viewBox="0 0 63 26" fill="none" xmlns="http://www.w3.org/2000/svg">
<path fill-rule="evenodd" clip-rule="evenodd" d="M62.6841 14.9952H54.2204C54.4199 17.0218 55.9005 17.6729 57.5807 17.6729C59.3028 17.6729 60.6889 17.2843 61.8335 16.6753V20.1616C60.381 20.9973 58.719 21.3982 57.0451 21.3166C52.8343 21.3166 49.8731 18.6914 49.8731 13.462C49.8731 9.0622 52.3828 5.56543 56.4886 5.56543C60.6049 5.56543 62.7471 9.00969 62.7471 13.441C62.7471 13.8611 62.7051 14.7641 62.6841 14.9952V14.9952ZM56.4676 9.0937C55.386 9.0937 54.1889 9.86026 54.1889 11.8029H58.6518C58.6518 9.86026 57.5282 9.0937 56.4676 9.0937ZM43.0581 21.3166C41.5459 21.3166 40.6219 20.6866 40.0128 20.2246L39.9918 25.0864L35.6655 26V5.84895H39.6138L39.6978 6.92003C40.6136 6.05139 41.8274 5.56663 43.0896 5.56543C46.1348 5.56543 48.991 8.29564 48.991 13.336C48.991 18.8279 46.1558 21.3166 43.0581 21.3166V21.3166ZM42.0605 9.39822C41.0629 9.39822 40.4434 9.75525 39.9918 10.2488L40.0128 16.6753C40.4329 17.1373 41.0419 17.4943 42.0605 17.4943C43.6566 17.4943 44.7277 15.7617 44.7277 13.4305C44.7277 11.1729 43.6356 9.39822 42.0605 9.39822V9.39822ZM29.7115 5.84895H34.0484V21.0121H29.7115V5.84895ZM29.7115 0.91357L34.0484 0V3.52827L29.7115 4.45234V0.924071V0.91357ZM25.1752 10.7318V21.0121H20.8488V5.84895H24.7341L24.8602 7.13005C25.9102 5.27141 28.0839 5.64943 28.6615 5.84895V9.82876C28.1154 9.65024 26.2568 9.37722 25.1752 10.7318V10.7318ZM16.197 15.6882C16.197 18.2399 18.9272 17.4523 19.4732 17.2213V20.7496C18.8957 21.0646 17.8561 21.3166 16.4385 21.3166C15.8477 21.3339 15.2595 21.2307 14.7098 21.0135C14.1601 20.7962 13.6603 20.4694 13.2409 20.053C12.8214 19.6365 12.4911 19.139 12.27 18.5908C12.0489 18.0427 11.9416 17.4552 11.9547 16.8643L11.9652 3.03473L16.1865 2.13166V5.84895H19.4837V9.55574H16.197V15.6987V15.6882ZM11.0411 16.4233C11.0411 19.542 8.61541 21.3166 5.02413 21.3166C3.41259 21.3154 1.8185 20.983 0.340773 20.3401V16.2132C1.78988 17.0008 3.59602 17.5889 5.02413 17.5889C5.99021 17.5889 6.63076 17.3368 6.63076 16.5388C6.63076 14.4596 0.057251 15.2367 0.057251 10.4483C0.057251 7.39257 2.45144 5.56543 5.9587 5.56543C7.38681 5.56543 8.81492 5.77544 10.2535 6.35299V10.4273C8.92409 9.72762 7.45019 9.34656 5.9482 9.31422C5.04513 9.31422 4.43609 9.57674 4.43609 10.2593C4.43609 12.2019 11.0411 11.2779 11.0411 16.4338V16.4233Z" fill="#151C48"/>
</svg>
