<svg width="109" height="157" viewBox="0 0 109 157" fill="none" xmlns="http://www.w3.org/2000/svg">
<path d="M0.15387 4.60074C0.15387 2.05982 2.21369 0 4.7546 0H34.9469L52.4872 17.8278V70.7363C52.4872 73.2772 50.4274 75.337 47.8865 75.337H4.7546C2.21368 75.337 0.15387 73.2772 0.15387 70.7363V4.60074Z" fill="white"/>
<path d="M34.3718 0.575092V13.2271C34.3718 16.0856 36.6891 18.4029 39.5476 18.4029H51.9121V70.7363C51.9121 72.9596 50.1098 74.7619 47.8865 74.7619H4.7546C2.5313 74.7619 0.728961 72.9596 0.728961 70.7363V4.60074C0.728961 2.37744 2.5313 0.575092 4.7546 0.575092H34.3718ZM35.522 13.2271V1.40451L51.1146 17.2527H39.5476C37.3243 17.2527 35.522 15.4504 35.522 13.2271Z" stroke="black" stroke-opacity="0.2" stroke-width="1.15018"/>
<rect x="7.63" y="31.0547" width="36.8059" height="3.45055" rx="1.15018" fill="#A3C7FE"/>
<rect opacity="0.1" x="7.63" y="37.9561" width="36.8059" height="3.45055" rx="1.15018" fill="black"/>
<rect opacity="0.1" x="7.63" y="44.8574" width="36.8059" height="3.45055" rx="1.15018" fill="black"/>
<rect opacity="0.1" x="7.63" y="51.7583" width="25.8791" height="3.45055" rx="1.15018" fill="black"/>
<path d="M0.15387 86.2638C0.15387 83.7229 2.21369 81.6631 4.7546 81.6631H34.9469L52.4872 99.4909V152.399C52.4872 154.94 50.4274 157 47.8865 157H4.7546C2.21368 157 0.15387 154.94 0.15387 152.399V86.2638Z" fill="white"/>
<path d="M34.3718 82.2382V94.8902C34.3718 97.7487 36.6891 100.066 39.5476 100.066H51.9121V152.399C51.9121 154.623 50.1098 156.425 47.8865 156.425H4.7546C2.5313 156.425 0.728961 154.623 0.728961 152.399V86.2638C0.728961 84.0405 2.5313 82.2382 4.7546 82.2382H34.3718ZM35.522 94.8902V83.0676L51.1146 98.9158H39.5476C37.3243 98.9158 35.522 97.1135 35.522 94.8902Z" stroke="black" stroke-opacity="0.2" stroke-width="1.15018"/>
<circle opacity="0.05" cx="26.033" cy="126.52" r="13.2271" fill="black"/>
<path d="M56.5128 4.60074C56.5128 2.05982 58.5726 0 61.1136 0H91.3059L108.846 17.8278V70.7363C108.846 73.2772 106.786 75.337 104.245 75.337H61.1135C58.5726 75.337 56.5128 73.2772 56.5128 70.7363V4.60074Z" fill="white"/>
<path d="M90.7308 0.575092V13.2271C90.7308 16.0856 93.0481 18.4029 95.9066 18.4029H108.271V70.7363C108.271 72.9596 106.469 74.7619 104.245 74.7619H61.1135C58.8902 74.7619 57.0879 72.9596 57.0879 70.7363V4.60074C57.0879 2.37744 58.8903 0.575092 61.1136 0.575092H90.7308ZM91.8809 13.2271V1.40451L107.474 17.2527H95.9066C93.6833 17.2527 91.8809 15.4504 91.8809 13.2271Z" stroke="black" stroke-opacity="0.2" stroke-width="1.15018"/>
<g opacity="0.2">
<path d="M99.7361 58.9146C95.9811 50.986 84.8848 50.4921 80.4402 58.0557L74.3407 68.4358H104.245L99.7361 58.9146Z" fill="black"/>
<path opacity="0.5" d="M83.9603 63.9541C80.0362 56.7971 69.9358 56.3127 65.3448 63.0614L61.6887 68.4358H86.4176L83.9603 63.9541Z" fill="black"/>
</g>
<circle cx="71.1776" cy="35.943" r="4.88828" fill="#C8F382"/>
<path d="M56.5128 86.2638C56.5128 83.7229 58.5726 81.6631 61.1136 81.6631H91.3059L108.846 99.4909V152.399C108.846 154.94 106.786 157 104.245 157H61.1135C58.5726 157 56.5128 154.94 56.5128 152.399V86.2638Z" fill="white"/>
<path d="M90.7308 82.2382V94.8902C90.7308 97.7487 93.0481 100.066 95.9066 100.066H108.271V152.399C108.271 154.623 106.469 156.425 104.245 156.425H61.1135C58.8902 156.425 57.0879 154.623 57.0879 152.399V86.2638C57.0879 84.0405 58.8903 82.2382 61.1136 82.2382H90.7308ZM91.8809 94.8902V83.0676L107.474 98.9158H95.9066C93.6833 98.9158 91.8809 97.1135 91.8809 94.8902Z" stroke="black" stroke-opacity="0.2" stroke-width="1.15018"/>
<path d="M22.5824 123.11C22.5824 122.333 23.4304 121.853 24.0969 122.253L29.7796 125.663C30.427 126.051 30.427 126.989 29.7796 127.378L24.0969 130.787C23.4304 131.187 22.5824 130.707 22.5824 129.93V123.11Z" fill="#B7ABFC"/>
<path fill-rule="evenodd" clip-rule="evenodd" d="M63.989 88.5645C63.3538 88.5645 62.8388 89.0794 62.8388 89.7146V96.0406C62.8388 96.6759 63.3538 97.1908 63.989 97.1908H67.4395C68.0748 97.1908 68.5897 96.6759 68.5897 96.0406V89.7146C68.5897 89.0794 68.0748 88.5645 67.4395 88.5645H63.989ZM65.1392 89.7145C64.504 89.7145 63.989 90.2295 63.989 90.8647V92.0149C63.989 92.6501 64.504 93.1651 65.1392 93.1651H66.2894C66.9246 93.1651 67.4396 92.6501 67.4396 92.0149V90.8647C67.4396 90.2295 66.9246 89.7145 66.2894 89.7145H65.1392Z" fill="#FFD4A1"/>
<rect opacity="0.2" x="65.1392" y="98.916" width="3.45055" height="1.72527" rx="0.575092" fill="black"/>
<rect opacity="0.2" x="62.8388" y="101.216" width="3.45055" height="1.72527" rx="0.575092" fill="black"/>
<rect opacity="0.2" x="65.1392" y="103.517" width="3.45055" height="1.72527" rx="0.575092" fill="black"/>
<rect opacity="0.2" x="62.8388" y="105.817" width="3.45055" height="1.72527" rx="0.575092" fill="black"/>
<rect opacity="0.2" x="65.1392" y="108.117" width="3.45055" height="1.72527" rx="0.575092" fill="black"/>
<rect opacity="0.2" x="62.8388" y="110.417" width="3.45055" height="1.72527" rx="0.575092" fill="black"/>
<rect opacity="0.2" x="65.1392" y="112.718" width="3.45055" height="1.72527" rx="0.575092" fill="black"/>
<rect opacity="0.2" x="62.8388" y="115.019" width="3.45055" height="1.72527" rx="0.575092" fill="black"/>
<rect opacity="0.2" x="65.1392" y="117.318" width="3.45055" height="1.72527" rx="0.575092" fill="black"/>
<rect opacity="0.2" x="62.8388" y="119.619" width="3.45055" height="1.72527" rx="0.575092" fill="black"/>
<rect opacity="0.2" x="65.1392" y="121.919" width="3.45055" height="1.72527" rx="0.575092" fill="black"/>
<rect opacity="0.2" x="62.8388" y="124.22" width="3.45055" height="1.72527" rx="0.575092" fill="black"/>
<rect opacity="0.2" x="65.1392" y="126.52" width="3.45055" height="1.72527" rx="0.575092" fill="black"/>
<rect opacity="0.2" x="62.8388" y="128.82" width="3.45055" height="1.72527" rx="0.575092" fill="black"/>
<rect opacity="0.2" x="65.1392" y="131.121" width="3.45055" height="1.72527" rx="0.575092" fill="black"/>
<rect opacity="0.2" x="62.8388" y="133.421" width="3.45055" height="1.72527" rx="0.575092" fill="black"/>
<rect opacity="0.2" x="65.1392" y="135.722" width="3.45055" height="1.72527" rx="0.575092" fill="black"/>
<rect opacity="0.2" x="62.8388" y="138.022" width="3.45055" height="1.72527" rx="0.575092" fill="black"/>
<rect opacity="0.2" x="65.1392" y="140.322" width="3.45055" height="1.72527" rx="0.575092" fill="black"/>
<rect opacity="0.2" x="62.8388" y="142.623" width="3.45055" height="1.72527" rx="0.575092" fill="black"/>
<rect opacity="0.2" x="65.1392" y="144.923" width="3.45055" height="1.72527" rx="0.575092" fill="black"/>
<rect opacity="0.2" x="62.8388" y="147.224" width="3.45055" height="1.72527" rx="0.575092" fill="black"/>
</svg>
