<svg width="62" height="62" viewBox="0 0 62 62" fill="none" xmlns="http://www.w3.org/2000/svg">
<path fill-rule="evenodd" clip-rule="evenodd" d="M38.9642 9.40044C39.1326 8.87445 38.8427 8.31156 38.3167 8.14319C37.7907 7.97481 37.2278 8.26472 37.0594 8.79072L35.84 12.6003C35.6716 13.1263 35.9615 13.6892 36.4875 13.8576C37.0135 14.0259 37.5764 13.736 37.7448 13.21L38.9642 9.40044ZM26.1599 49.401C26.3283 48.8751 26.0384 48.3122 25.5124 48.1438C24.9864 47.9754 24.4235 48.2653 24.2551 48.7913L23.0357 52.6009C22.8673 53.1269 23.1572 53.6898 23.6832 53.8582C24.2092 54.0265 24.7721 53.7366 24.9405 53.2106L26.1599 49.401ZM53.8574 38.3174C53.6891 38.8434 53.1262 39.1333 52.6002 38.9649L48.7906 37.7455C48.2646 37.5771 47.9747 37.0142 48.1431 36.4882C48.3114 35.9622 48.8743 35.6723 49.4003 35.8407L53.2099 37.0601C53.7359 37.2285 54.0258 37.7914 53.8574 38.3174ZM12.5996 26.1606C13.1256 26.329 13.6885 26.0391 13.8568 25.5131C14.0252 24.9871 13.7353 24.4242 13.2093 24.2559L9.39972 23.0364C8.87373 22.868 8.31083 23.1579 8.14246 23.6839C7.97409 24.2099 8.264 24.7728 8.78999 24.9412L12.5996 26.1606ZM52.3366 20.0116C52.5895 20.5026 52.3965 21.1056 51.9055 21.3585L48.3494 23.1899C47.8584 23.4428 47.2554 23.2498 47.0025 22.7588C46.7496 22.2678 46.9427 21.6648 47.4337 21.4119L50.9897 19.5804C51.4807 19.3275 52.0837 19.5206 52.3366 20.0116ZM14.5666 40.5888C15.0576 40.336 15.2506 39.7329 14.9978 39.2419C14.7449 38.751 14.1419 38.5579 13.6509 38.8108L10.0948 40.6423C9.60381 40.8952 9.41078 41.4982 9.66366 41.9892C9.91653 42.4802 10.5196 42.6732 11.0105 42.4203L14.5666 40.5888ZM41.9891 52.3373C41.4981 52.5902 40.895 52.3972 40.6422 51.9062L38.8107 48.3501C38.5578 47.8591 38.7508 47.2561 39.2418 47.0032C39.7328 46.7504 40.3358 46.9434 40.5887 47.4344L42.4202 50.9904C42.6731 51.4814 42.48 52.0845 41.9891 52.3373ZM21.4112 14.5677C21.664 15.0586 22.2671 15.2517 22.7581 14.9988C23.249 14.7459 23.4421 14.1429 23.1892 13.6519L21.3577 10.0958C21.1048 9.60485 20.5018 9.41182 20.0108 9.6647C19.5198 9.91758 19.3268 10.5206 19.5797 11.0116L21.4112 14.5677Z" fill="#367FFB"/>
</svg>
